<?xml version="1.0" encoding="UTF-8" standalone="no"?>
<!DOCTYPE svg PUBLIC "-//W3C//DTD SVG 1.1//EN"
 "http://www.w3.org/Graphics/SVG/1.1/DTD/svg11.dtd">
<!-- Generated by graphviz version 2.38.0 (20140413.2041)
 -->
<!-- Title: %3 Pages: 1 -->
<svg width="2135pt" height="373pt"
 viewBox="0.00 0.00 2134.55 372.61" xmlns="http://www.w3.org/2000/svg" xmlns:xlink="http://www.w3.org/1999/xlink">
<g id="graph0" class="graph" transform="scale(1 1) rotate(0) translate(4 368.605)">
<title>%3</title>
<polygon fill="white" stroke="none" points="-4,4 -4,-368.605 2130.55,-368.605 2130.55,4 -4,4"/>
<!-- 1 -->
<g id="node1" class="node"><title>1</title>
<ellipse fill="none" stroke="black" cx="742.727" cy="-140.803" rx="83.3772" ry="89.6056"/>
<polygon fill="none" stroke="black" points="694.727,-175.803 694.727,-196.803 757.727,-196.803 757.727,-175.803 694.727,-175.803"/>
<text text-anchor="start" x="697.727" y="-182.603" font-family="Times,serif" font-size="14.00">Label</text>
<polygon fill="none" stroke="black" points="759.727,-175.803 759.727,-196.803 790.727,-196.803 790.727,-175.803 759.727,-175.803"/>
<text text-anchor="start" x="762.727" y="-182.603" font-family="Times,serif" font-size="14.00">A2</text>
<polygon fill="none" stroke="black" points="694.727,-152.803 694.727,-173.803 757.727,-173.803 757.727,-152.803 694.727,-152.803"/>
<text text-anchor="start" x="697.727" y="-159.603" font-family="Times,serif" font-size="14.00">Value </text>
<polygon fill="none" stroke="black" points="759.727,-152.803 759.727,-173.803 790.727,-173.803 790.727,-152.803 759.727,-152.803"/>
<text text-anchor="start" x="762.727" y="-159.603" font-family="Times,serif" font-size="14.00">gray</text>
<polygon fill="none" stroke="black" points="694.727,-129.803 694.727,-150.803 757.727,-150.803 757.727,-129.803 694.727,-129.803"/>
<text text-anchor="start" x="697.727" y="-136.603" font-family="Times,serif" font-size="14.00">Witnesses</text>
<polygon fill="none" stroke="black" points="759.727,-129.803 759.727,-150.803 790.727,-150.803 790.727,-129.803 759.727,-129.803"/>
<text text-anchor="start" x="762.727" y="-136.603" font-family="Times,serif" font-size="14.00">A</text>
<polygon fill="none" stroke="black" points="694.727,-106.803 694.727,-127.803 757.727,-127.803 757.727,-106.803 694.727,-106.803"/>
<text text-anchor="start" x="697.727" y="-113.603" font-family="Times,serif" font-size="14.00">Exact</text>
<polygon fill="none" stroke="black" points="759.727,-106.803 759.727,-127.803 790.727,-127.803 790.727,-106.803 759.727,-106.803"/>
<text text-anchor="start" x="779.727" y="-113.603" font-family="Times,serif" font-size="14.00">3</text>
<polygon fill="none" stroke="black" points="694.727,-83.8026 694.727,-104.803 757.727,-104.803 757.727,-83.8026 694.727,-83.8026"/>
<text text-anchor="start" x="697.727" y="-90.6026" font-family="Times,serif" font-size="14.00">Near</text>
<polygon fill="none" stroke="black" points="759.727,-83.8026 759.727,-104.803 790.727,-104.803 790.727,-83.8026 759.727,-83.8026"/>
<text text-anchor="start" x="777.727" y="-90.6026" font-family="Times,serif" font-size="14.00">[]</text>
<polygon fill="none" stroke="black" points="691.727,-81.3026 691.727,-200.303 793.727,-200.303 793.727,-81.3026 691.727,-81.3026"/>
</g>
<!-- 2 -->
<g id="node2" class="node"><title>2</title>
<ellipse fill="none" stroke="black" cx="1397.89" cy="-215.803" rx="272.886" ry="89.6056"/>
<polygon fill="none" stroke="black" points="1215.89,-250.803 1215.89,-271.803 1278.89,-271.803 1278.89,-250.803 1215.89,-250.803"/>
<text text-anchor="start" x="1218.89" y="-257.603" font-family="Times,serif" font-size="14.00">Label</text>
<polygon fill="none" stroke="black" points="1280.89,-250.803 1280.89,-271.803 1579.89,-271.803 1579.89,-250.803 1280.89,-250.803"/>
<text text-anchor="start" x="1283.89" y="-257.603" font-family="Times,serif" font-size="14.00">B1</text>
<polygon fill="none" stroke="black" points="1215.89,-227.803 1215.89,-248.803 1278.89,-248.803 1278.89,-227.803 1215.89,-227.803"/>
<text text-anchor="start" x="1218.89" y="-234.603" font-family="Times,serif" font-size="14.00">Value </text>
<polygon fill="none" stroke="black" points="1280.89,-227.803 1280.89,-248.803 1579.89,-248.803 1579.89,-227.803 1280.89,-227.803"/>
<text text-anchor="start" x="1283.89" y="-234.603" font-family="Times,serif" font-size="14.00">grey</text>
<polygon fill="none" stroke="black" points="1215.89,-204.803 1215.89,-225.803 1278.89,-225.803 1278.89,-204.803 1215.89,-204.803"/>
<text text-anchor="start" x="1218.89" y="-211.603" font-family="Times,serif" font-size="14.00">Witnesses</text>
<polygon fill="none" stroke="black" points="1280.89,-204.803 1280.89,-225.803 1579.89,-225.803 1579.89,-204.803 1280.89,-204.803"/>
<text text-anchor="start" x="1283.89" y="-211.603" font-family="Times,serif" font-size="14.00">B</text>
<polygon fill="none" stroke="black" points="1215.89,-181.803 1215.89,-202.803 1278.89,-202.803 1278.89,-181.803 1215.89,-181.803"/>
<text text-anchor="start" x="1218.89" y="-188.603" font-family="Times,serif" font-size="14.00">Exact</text>
<polygon fill="none" stroke="black" points="1280.89,-181.803 1280.89,-202.803 1579.89,-202.803 1579.89,-181.803 1280.89,-181.803"/>
<text text-anchor="start" x="1568.89" y="-188.603" font-family="Times,serif" font-size="14.00">2</text>
<polygon fill="none" stroke="black" points="1215.89,-158.803 1215.89,-179.803 1278.89,-179.803 1278.89,-158.803 1215.89,-158.803"/>
<text text-anchor="start" x="1218.89" y="-165.603" font-family="Times,serif" font-size="14.00">Near</text>
<polygon fill="none" stroke="black" points="1280.89,-158.803 1280.89,-179.803 1579.89,-179.803 1579.89,-158.803 1280.89,-158.803"/>
<text text-anchor="start" x="1283.89" y="-165.603" font-family="Times,serif" font-size="14.00">[0.75, 0.2222222222222222, 0.2857142857142857]</text>
<polygon fill="none" stroke="black" points="1212.89,-156.303 1212.89,-275.303 1582.89,-275.303 1582.89,-156.303 1212.89,-156.303"/>
</g>
<!-- 1&#45;&gt;2 -->
<g id="edge2" class="edge"><title>1&#45;&gt;2</title>
<path fill="none" stroke="black" stroke-dasharray="5,2" d="M821.624,-171.109C842.603,-178.097 865.496,-184.682 887.166,-188.803 960.276,-202.706 1040.27,-210.393 1114.77,-214.446"/>
<polygon fill="black" stroke="black" points="1114.6,-217.941 1124.77,-214.97 1114.96,-210.951 1114.6,-217.941"/>
<text text-anchor="middle" x="975.554" y="-214.603" font-family="Times,serif" font-size="14.00">0.75</text>
</g>
<!-- 3 -->
<g id="node3" class="node"><title>3</title>
<ellipse fill="none" stroke="black" cx="975.554" cy="-89.8026" rx="88.2768" ry="89.6056"/>
<polygon fill="none" stroke="black" points="924.554,-124.803 924.554,-145.803 987.554,-145.803 987.554,-124.803 924.554,-124.803"/>
<text text-anchor="start" x="927.554" y="-131.603" font-family="Times,serif" font-size="14.00">Label</text>
<polygon fill="none" stroke="black" points="989.554,-124.803 989.554,-145.803 1027.55,-145.803 1027.55,-124.803 989.554,-124.803"/>
<text text-anchor="start" x="992.554" y="-131.603" font-family="Times,serif" font-size="14.00">A3</text>
<polygon fill="none" stroke="black" points="924.554,-101.803 924.554,-122.803 987.554,-122.803 987.554,-101.803 924.554,-101.803"/>
<text text-anchor="start" x="927.554" y="-108.603" font-family="Times,serif" font-size="14.00">Value </text>
<polygon fill="none" stroke="black" points="989.554,-101.803 989.554,-122.803 1027.55,-122.803 1027.55,-101.803 989.554,-101.803"/>
<text text-anchor="start" x="992.554" y="-108.603" font-family="Times,serif" font-size="14.00">fuzzy</text>
<polygon fill="none" stroke="black" points="924.554,-78.8026 924.554,-99.8026 987.554,-99.8026 987.554,-78.8026 924.554,-78.8026"/>
<text text-anchor="start" x="927.554" y="-85.6026" font-family="Times,serif" font-size="14.00">Witnesses</text>
<polygon fill="none" stroke="black" points="989.554,-78.8026 989.554,-99.8026 1027.55,-99.8026 1027.55,-78.8026 989.554,-78.8026"/>
<text text-anchor="start" x="992.554" y="-85.6026" font-family="Times,serif" font-size="14.00">A</text>
<polygon fill="none" stroke="black" points="924.554,-55.8026 924.554,-76.8026 987.554,-76.8026 987.554,-55.8026 924.554,-55.8026"/>
<text text-anchor="start" x="927.554" y="-62.6026" font-family="Times,serif" font-size="14.00">Exact</text>
<polygon fill="none" stroke="black" points="989.554,-55.8026 989.554,-76.8026 1027.55,-76.8026 1027.55,-55.8026 989.554,-55.8026"/>
<text text-anchor="start" x="1016.55" y="-62.6026" font-family="Times,serif" font-size="14.00">4</text>
<polygon fill="none" stroke="black" points="924.554,-32.8026 924.554,-53.8026 987.554,-53.8026 987.554,-32.8026 924.554,-32.8026"/>
<text text-anchor="start" x="927.554" y="-39.6026" font-family="Times,serif" font-size="14.00">Near</text>
<polygon fill="none" stroke="black" points="989.554,-32.8026 989.554,-53.8026 1027.55,-53.8026 1027.55,-32.8026 989.554,-32.8026"/>
<text text-anchor="start" x="1014.55" y="-39.6026" font-family="Times,serif" font-size="14.00">[]</text>
<polygon fill="none" stroke="black" points="921.054,-30.3026 921.054,-149.303 1030.05,-149.303 1030.05,-30.3026 921.054,-30.3026"/>
</g>
<!-- 1&#45;&gt;3 -->
<g id="edge1" class="edge"><title>1&#45;&gt;3</title>
<path fill="none" stroke="black" d="M824.783,-122.894C842.32,-119.019 861.022,-114.887 879.054,-110.903"/>
<polygon fill="black" stroke="black" points="879.983,-114.282 888.992,-108.707 878.472,-107.447 879.983,-114.282"/>
<text text-anchor="middle" x="856.666" y="-122.603" font-family="Times,serif" font-size="14.00">A</text>
</g>
<!-- 4 -->
<g id="node4" class="node"><title>4</title>
<ellipse fill="none" stroke="black" cx="1804.51" cy="-130.803" rx="87.8629" ry="89.6056"/>
<polygon fill="none" stroke="black" points="1753.51,-165.803 1753.51,-186.803 1816.51,-186.803 1816.51,-165.803 1753.51,-165.803"/>
<text text-anchor="start" x="1756.51" y="-172.603" font-family="Times,serif" font-size="14.00">Label</text>
<polygon fill="none" stroke="black" points="1818.51,-165.803 1818.51,-186.803 1855.51,-186.803 1855.51,-165.803 1818.51,-165.803"/>
<text text-anchor="start" x="1821.51" y="-172.603" font-family="Times,serif" font-size="14.00">AB2</text>
<polygon fill="none" stroke="black" points="1753.51,-142.803 1753.51,-163.803 1816.51,-163.803 1816.51,-142.803 1753.51,-142.803"/>
<text text-anchor="start" x="1756.51" y="-149.603" font-family="Times,serif" font-size="14.00">Value </text>
<polygon fill="none" stroke="black" points="1818.51,-142.803 1818.51,-163.803 1855.51,-163.803 1855.51,-142.803 1818.51,-142.803"/>
<text text-anchor="start" x="1821.51" y="-149.603" font-family="Times,serif" font-size="14.00">koala</text>
<polygon fill="none" stroke="black" points="1753.51,-119.803 1753.51,-140.803 1816.51,-140.803 1816.51,-119.803 1753.51,-119.803"/>
<text text-anchor="start" x="1756.51" y="-126.603" font-family="Times,serif" font-size="14.00">Witnesses</text>
<polygon fill="none" stroke="black" points="1818.51,-119.803 1818.51,-140.803 1855.51,-140.803 1855.51,-119.803 1818.51,-119.803"/>
<text text-anchor="start" x="1821.51" y="-126.603" font-family="Times,serif" font-size="14.00">A,B</text>
<polygon fill="none" stroke="black" points="1753.51,-96.8026 1753.51,-117.803 1816.51,-117.803 1816.51,-96.8026 1753.51,-96.8026"/>
<text text-anchor="start" x="1756.51" y="-103.603" font-family="Times,serif" font-size="14.00">Exact</text>
<polygon fill="none" stroke="black" points="1818.51,-96.8026 1818.51,-117.803 1855.51,-117.803 1855.51,-96.8026 1818.51,-96.8026"/>
<text text-anchor="start" x="1844.51" y="-103.603" font-family="Times,serif" font-size="14.00">5</text>
<polygon fill="none" stroke="black" points="1753.51,-73.8026 1753.51,-94.8026 1816.51,-94.8026 1816.51,-73.8026 1753.51,-73.8026"/>
<text text-anchor="start" x="1756.51" y="-80.6026" font-family="Times,serif" font-size="14.00">Near</text>
<polygon fill="none" stroke="black" points="1818.51,-73.8026 1818.51,-94.8026 1855.51,-94.8026 1855.51,-73.8026 1818.51,-73.8026"/>
<text text-anchor="start" x="1842.51" y="-80.6026" font-family="Times,serif" font-size="14.00">[]</text>
<polygon fill="none" stroke="black" points="1750.51,-71.3026 1750.51,-190.303 1858.51,-190.303 1858.51,-71.3026 1750.51,-71.3026"/>
</g>
<!-- 2&#45;&gt;4 -->
<g id="edge3" class="edge"><title>2&#45;&gt;4</title>
<path fill="none" stroke="black" d="M1628.39,-167.59C1656.45,-161.695 1683.8,-155.95 1708.23,-150.818"/>
<polygon fill="black" stroke="black" points="1709.09,-154.215 1718.15,-148.734 1707.65,-147.364 1709.09,-154.215"/>
<text text-anchor="middle" x="1693.83" y="-157.603" font-family="Times,serif" font-size="14.00">B</text>
</g>
<!-- 3&#45;&gt;2 -->
<g id="edge5" class="edge"><title>3&#45;&gt;2</title>
<path fill="none" stroke="black" stroke-dasharray="5,2" d="M1060.6,-114.998C1096.99,-125.904 1141.37,-139.208 1185.81,-152.529"/>
<polygon fill="black" stroke="black" points="1185,-155.941 1195.59,-155.46 1187.01,-149.236 1185,-155.941"/>
<text text-anchor="middle" x="1094.44" y="-131.603" font-family="Times,serif" font-size="14.00">0.22</text>
</g>
<!-- 3&#45;&gt;4 -->
<g id="edge4" class="edge"><title>3&#45;&gt;4</title>
<path fill="none" stroke="black" d="M1064.06,-85.793C1196.07,-80.9891 1453.8,-76.4626 1670.83,-101.803 1683.21,-103.248 1696.14,-105.334 1708.85,-107.733"/>
<polygon fill="black" stroke="black" points="1708.51,-111.231 1718.99,-109.718 1709.85,-104.362 1708.51,-111.231"/>
<text text-anchor="middle" x="1397.89" y="-105.603" font-family="Times,serif" font-size="14.00">A</text>
</g>
<!-- 6 -->
<g id="node6" class="node"><title>6</title>
<ellipse fill="none" stroke="black" cx="2038.87" cy="-130.803" rx="87.8629" ry="89.6056"/>
<polygon fill="none" stroke="black" points="1987.87,-165.803 1987.87,-186.803 2050.87,-186.803 2050.87,-165.803 1987.87,-165.803"/>
<text text-anchor="start" x="1990.87" y="-172.603" font-family="Times,serif" font-size="14.00">Label</text>
<polygon fill="none" stroke="black" points="2052.87,-165.803 2052.87,-186.803 2089.87,-186.803 2089.87,-165.803 2052.87,-165.803"/>
<text text-anchor="start" x="2055.87" y="-172.603" font-family="Times,serif" font-size="14.00">end</text>
<polygon fill="none" stroke="black" points="1987.87,-142.803 1987.87,-163.803 2050.87,-163.803 2050.87,-142.803 1987.87,-142.803"/>
<text text-anchor="start" x="1990.87" y="-149.603" font-family="Times,serif" font-size="14.00">Value </text>
<polygon fill="none" stroke="black" points="2052.87,-142.803 2052.87,-163.803 2089.87,-163.803 2089.87,-142.803 2052.87,-142.803"/>
<text text-anchor="start" x="2055.87" y="-149.603" font-family="Times,serif" font-size="14.00">[end]</text>
<polygon fill="none" stroke="black" points="1987.87,-119.803 1987.87,-140.803 2050.87,-140.803 2050.87,-119.803 1987.87,-119.803"/>
<text text-anchor="start" x="1990.87" y="-126.603" font-family="Times,serif" font-size="14.00">Witnesses</text>
<polygon fill="none" stroke="black" points="2052.87,-119.803 2052.87,-140.803 2089.87,-140.803 2089.87,-119.803 2052.87,-119.803"/>
<text text-anchor="start" x="2055.87" y="-126.603" font-family="Times,serif" font-size="14.00">None</text>
<polygon fill="none" stroke="black" points="1987.87,-96.8026 1987.87,-117.803 2050.87,-117.803 2050.87,-96.8026 1987.87,-96.8026"/>
<text text-anchor="start" x="1990.87" y="-103.603" font-family="Times,serif" font-size="14.00">Exact</text>
<polygon fill="none" stroke="black" points="2052.87,-96.8026 2052.87,-117.803 2089.87,-117.803 2089.87,-96.8026 2052.87,-96.8026"/>
<text text-anchor="start" x="2078.87" y="-103.603" font-family="Times,serif" font-size="14.00">6</text>
<polygon fill="none" stroke="black" points="1987.87,-73.8026 1987.87,-94.8026 2050.87,-94.8026 2050.87,-73.8026 1987.87,-73.8026"/>
<text text-anchor="start" x="1990.87" y="-80.6026" font-family="Times,serif" font-size="14.00">Near</text>
<polygon fill="none" stroke="black" points="2052.87,-73.8026 2052.87,-94.8026 2089.87,-94.8026 2089.87,-73.8026 2052.87,-73.8026"/>
<text text-anchor="start" x="2076.87" y="-80.6026" font-family="Times,serif" font-size="14.00">[]</text>
<polygon fill="none" stroke="black" points="1984.87,-71.3026 1984.87,-190.303 2092.87,-190.303 2092.87,-71.3026 1984.87,-71.3026"/>
</g>
<!-- 4&#45;&gt;6 -->
<g id="edge6" class="edge"><title>4&#45;&gt;6</title>
<path fill="none" stroke="black" d="M1892.36,-130.803C1908.12,-130.803 1924.64,-130.803 1940.67,-130.803"/>
<polygon fill="black" stroke="black" points="1941.12,-134.303 1951.12,-130.803 1941.12,-127.303 1941.12,-134.303"/>
<text text-anchor="middle" x="1921.69" y="-134.603" font-family="Times,serif" font-size="14.00">A,B</text>
</g>
<!-- 5 -->
<g id="node5" class="node"><title>5</title>
<ellipse fill="none" stroke="black" cx="89.8026" cy="-274.803" rx="89.6056" ry="89.6056"/>
<polygon fill="none" stroke="black" points="37.8026,-309.803 37.8026,-330.803 100.803,-330.803 100.803,-309.803 37.8026,-309.803"/>
<text text-anchor="start" x="40.8026" y="-316.603" font-family="Times,serif" font-size="14.00">Label</text>
<polygon fill="none" stroke="black" points="102.803,-309.803 102.803,-330.803 142.803,-330.803 142.803,-309.803 102.803,-309.803"/>
<text text-anchor="start" x="105.803" y="-316.603" font-family="Times,serif" font-size="14.00">start</text>
<polygon fill="none" stroke="black" points="37.8026,-286.803 37.8026,-307.803 100.803,-307.803 100.803,-286.803 37.8026,-286.803"/>
<text text-anchor="start" x="40.8026" y="-293.603" font-family="Times,serif" font-size="14.00">Value </text>
<polygon fill="none" stroke="black" points="102.803,-286.803 102.803,-307.803 142.803,-307.803 142.803,-286.803 102.803,-286.803"/>
<text text-anchor="start" x="105.803" y="-293.603" font-family="Times,serif" font-size="14.00">[start]</text>
<polygon fill="none" stroke="black" points="37.8026,-263.803 37.8026,-284.803 100.803,-284.803 100.803,-263.803 37.8026,-263.803"/>
<text text-anchor="start" x="40.8026" y="-270.603" font-family="Times,serif" font-size="14.00">Witnesses</text>
<polygon fill="none" stroke="black" points="102.803,-263.803 102.803,-284.803 142.803,-284.803 142.803,-263.803 102.803,-263.803"/>
<text text-anchor="start" x="105.803" y="-270.603" font-family="Times,serif" font-size="14.00">None</text>
<polygon fill="none" stroke="black" points="37.8026,-240.803 37.8026,-261.803 100.803,-261.803 100.803,-240.803 37.8026,-240.803"/>
<text text-anchor="start" x="40.8026" y="-247.603" font-family="Times,serif" font-size="14.00">Exact</text>
<polygon fill="none" stroke="black" points="102.803,-240.803 102.803,-261.803 142.803,-261.803 142.803,-240.803 102.803,-240.803"/>
<text text-anchor="start" x="131.803" y="-247.603" font-family="Times,serif" font-size="14.00">0</text>
<polygon fill="none" stroke="black" points="37.8026,-217.803 37.8026,-238.803 100.803,-238.803 100.803,-217.803 37.8026,-217.803"/>
<text text-anchor="start" x="40.8026" y="-224.603" font-family="Times,serif" font-size="14.00">Near</text>
<polygon fill="none" stroke="black" points="102.803,-217.803 102.803,-238.803 142.803,-238.803 142.803,-217.803 102.803,-217.803"/>
<text text-anchor="start" x="129.803" y="-224.603" font-family="Times,serif" font-size="14.00">[]</text>
<polygon fill="none" stroke="black" points="34.3026,-215.303 34.3026,-334.303 145.303,-334.303 145.303,-215.303 34.3026,-215.303"/>
</g>
<!-- 7 -->
<g id="node7" class="node"><title>7</title>
<ellipse fill="none" stroke="black" cx="323.458" cy="-274.803" rx="84.7059" ry="89.6056"/>
<polygon fill="none" stroke="black" points="274.458,-309.803 274.458,-330.803 337.458,-330.803 337.458,-309.803 274.458,-309.803"/>
<text text-anchor="start" x="277.458" y="-316.603" font-family="Times,serif" font-size="14.00">Label</text>
<polygon fill="none" stroke="black" points="339.458,-309.803 339.458,-330.803 372.458,-330.803 372.458,-309.803 339.458,-309.803"/>
<text text-anchor="start" x="342.458" y="-316.603" font-family="Times,serif" font-size="14.00">AB1</text>
<polygon fill="none" stroke="black" points="274.458,-286.803 274.458,-307.803 337.458,-307.803 337.458,-286.803 274.458,-286.803"/>
<text text-anchor="start" x="277.458" y="-293.603" font-family="Times,serif" font-size="14.00">Value </text>
<polygon fill="none" stroke="black" points="339.458,-286.803 339.458,-307.803 372.458,-307.803 372.458,-286.803 339.458,-286.803"/>
<text text-anchor="start" x="342.458" y="-293.603" font-family="Times,serif" font-size="14.00">The</text>
<polygon fill="none" stroke="black" points="274.458,-263.803 274.458,-284.803 337.458,-284.803 337.458,-263.803 274.458,-263.803"/>
<text text-anchor="start" x="277.458" y="-270.603" font-family="Times,serif" font-size="14.00">Witnesses</text>
<polygon fill="none" stroke="black" points="339.458,-263.803 339.458,-284.803 372.458,-284.803 372.458,-263.803 339.458,-263.803"/>
<text text-anchor="start" x="342.458" y="-270.603" font-family="Times,serif" font-size="14.00">A,B</text>
<polygon fill="none" stroke="black" points="274.458,-240.803 274.458,-261.803 337.458,-261.803 337.458,-240.803 274.458,-240.803"/>
<text text-anchor="start" x="277.458" y="-247.603" font-family="Times,serif" font-size="14.00">Exact</text>
<polygon fill="none" stroke="black" points="339.458,-240.803 339.458,-261.803 372.458,-261.803 372.458,-240.803 339.458,-240.803"/>
<text text-anchor="start" x="361.458" y="-247.603" font-family="Times,serif" font-size="14.00">1</text>
<polygon fill="none" stroke="black" points="274.458,-217.803 274.458,-238.803 337.458,-238.803 337.458,-217.803 274.458,-217.803"/>
<text text-anchor="start" x="277.458" y="-224.603" font-family="Times,serif" font-size="14.00">Near</text>
<polygon fill="none" stroke="black" points="339.458,-217.803 339.458,-238.803 372.458,-238.803 372.458,-217.803 339.458,-217.803"/>
<text text-anchor="start" x="359.458" y="-224.603" font-family="Times,serif" font-size="14.00">[]</text>
<polygon fill="none" stroke="black" points="271.458,-215.303 271.458,-334.303 375.458,-334.303 375.458,-215.303 271.458,-215.303"/>
</g>
<!-- 5&#45;&gt;7 -->
<g id="edge7" class="edge"><title>5&#45;&gt;7</title>
<path fill="none" stroke="black" d="M179.704,-274.803C195.509,-274.803 212.022,-274.803 227.975,-274.803"/>
<polygon fill="black" stroke="black" points="228.364,-278.303 238.364,-274.803 228.364,-271.303 228.364,-278.303"/>
<text text-anchor="middle" x="209.105" y="-278.603" font-family="Times,serif" font-size="14.00">A,B</text>
</g>
<!-- 7&#45;&gt;2 -->
<g id="edge8" class="edge"><title>7&#45;&gt;2</title>
<path fill="none" stroke="black" d="M407.198,-292.254C445.269,-298.853 491.14,-304.803 532.8,-304.803 532.8,-304.803 532.8,-304.803 976.554,-304.803 1045.38,-304.803 1119.19,-293.242 1185.45,-278.454"/>
<polygon fill="black" stroke="black" points="1186.62,-281.779 1195.6,-276.153 1185.07,-274.952 1186.62,-281.779"/>
<text text-anchor="middle" x="742.727" y="-308.603" font-family="Times,serif" font-size="14.00">B</text>
</g>
<!-- 8 -->
<g id="node8" class="node"><title>8</title>
<ellipse fill="none" stroke="black" cx="533.8" cy="-186.803" rx="78.4777" ry="89.6056"/>
<polygon fill="none" stroke="black" points="489.8,-221.803 489.8,-242.803 552.8,-242.803 552.8,-221.803 489.8,-221.803"/>
<text text-anchor="start" x="492.8" y="-228.603" font-family="Times,serif" font-size="14.00">Label</text>
<polygon fill="none" stroke="black" points="554.8,-221.803 554.8,-242.803 578.8,-242.803 578.8,-221.803 554.8,-221.803"/>
<text text-anchor="start" x="557.8" y="-228.603" font-family="Times,serif" font-size="14.00">A1</text>
<polygon fill="none" stroke="black" points="489.8,-198.803 489.8,-219.803 552.8,-219.803 552.8,-198.803 489.8,-198.803"/>
<text text-anchor="start" x="492.8" y="-205.603" font-family="Times,serif" font-size="14.00">Value </text>
<polygon fill="none" stroke="black" points="554.8,-198.803 554.8,-219.803 578.8,-219.803 578.8,-198.803 554.8,-198.803"/>
<text text-anchor="start" x="557.8" y="-205.603" font-family="Times,serif" font-size="14.00">big</text>
<polygon fill="none" stroke="black" points="489.8,-175.803 489.8,-196.803 552.8,-196.803 552.8,-175.803 489.8,-175.803"/>
<text text-anchor="start" x="492.8" y="-182.603" font-family="Times,serif" font-size="14.00">Witnesses</text>
<polygon fill="none" stroke="black" points="554.8,-175.803 554.8,-196.803 578.8,-196.803 578.8,-175.803 554.8,-175.803"/>
<text text-anchor="start" x="557.8" y="-182.603" font-family="Times,serif" font-size="14.00">A</text>
<polygon fill="none" stroke="black" points="489.8,-152.803 489.8,-173.803 552.8,-173.803 552.8,-152.803 489.8,-152.803"/>
<text text-anchor="start" x="492.8" y="-159.603" font-family="Times,serif" font-size="14.00">Exact</text>
<polygon fill="none" stroke="black" points="554.8,-152.803 554.8,-173.803 578.8,-173.803 578.8,-152.803 554.8,-152.803"/>
<text text-anchor="start" x="567.8" y="-159.603" font-family="Times,serif" font-size="14.00">2</text>
<polygon fill="none" stroke="black" points="489.8,-129.803 489.8,-150.803 552.8,-150.803 552.8,-129.803 489.8,-129.803"/>
<text text-anchor="start" x="492.8" y="-136.603" font-family="Times,serif" font-size="14.00">Near</text>
<polygon fill="none" stroke="black" points="554.8,-129.803 554.8,-150.803 578.8,-150.803 578.8,-129.803 554.8,-129.803"/>
<text text-anchor="start" x="565.8" y="-136.603" font-family="Times,serif" font-size="14.00">[]</text>
<polygon fill="none" stroke="black" points="486.3,-127.303 486.3,-246.303 581.3,-246.303 581.3,-127.303 486.3,-127.303"/>
</g>
<!-- 7&#45;&gt;8 -->
<g id="edge9" class="edge"><title>7&#45;&gt;8</title>
<path fill="none" stroke="black" d="M402.629,-241.784C418.362,-235.139 434.941,-228.137 450.8,-221.438"/>
<polygon fill="black" stroke="black" points="452.193,-224.649 460.043,-217.534 449.469,-218.201 452.193,-224.649"/>
<text text-anchor="middle" x="431.811" y="-234.603" font-family="Times,serif" font-size="14.00">A</text>
</g>
<!-- 8&#45;&gt;1 -->
<g id="edge10" class="edge"><title>8&#45;&gt;1</title>
<path fill="none" stroke="black" d="M610.97,-169.87C623.918,-166.991 637.48,-163.977 650.764,-161.024"/>
<polygon fill="black" stroke="black" points="651.85,-164.368 660.852,-158.781 650.331,-157.535 651.85,-164.368"/>
<text text-anchor="middle" x="635.788" y="-169.603" font-family="Times,serif" font-size="14.00">A</text>
</g>
<!-- 8&#45;&gt;2 -->
<g id="edge11" class="edge"><title>8&#45;&gt;2</title>
<path fill="none" stroke="black" stroke-dasharray="5,2" d="M605.953,-222.864C623.005,-229.871 641.451,-236.164 659.288,-239.803 816.21,-271.816 995.744,-266.844 1138.4,-253.373"/>
<polygon fill="black" stroke="black" points="1138.98,-256.833 1148.6,-252.389 1138.31,-249.865 1138.98,-256.833"/>
<text text-anchor="middle" x="856.666" y="-266.603" font-family="Times,serif" font-size="14.00">0.29</text>
</g>
</g>
</svg>
