<?xml version="1.0" encoding="UTF-8" standalone="no"?>
<!DOCTYPE svg PUBLIC "-//W3C//DTD SVG 1.1//EN"
 "http://www.w3.org/Graphics/SVG/1.1/DTD/svg11.dtd">
<!-- Generated by graphviz version 2.38.0 (20140413.2041)
 -->
<!-- Title: %3 Pages: 1 -->
<svg width="2135pt" height="384pt"
 viewBox="0.00 0.00 2134.55 383.61" xmlns="http://www.w3.org/2000/svg" xmlns:xlink="http://www.w3.org/1999/xlink">
<g id="graph0" class="graph" transform="scale(1 1) rotate(0) translate(4 379.605)">
<title>%3</title>
<polygon fill="white" stroke="none" points="-4,4 -4,-379.605 2130.55,-379.605 2130.55,4 -4,4"/>
<!-- 1 -->
<g id="node1" class="node"><title>1</title>
<ellipse fill="none" stroke="black" cx="533.8" cy="-191.803" rx="78.4777" ry="89.6056"/>
<polygon fill="none" stroke="black" points="489.8,-226.803 489.8,-247.803 552.8,-247.803 552.8,-226.803 489.8,-226.803"/>
<text text-anchor="start" x="492.8" y="-233.603" font-family="Times,serif" font-size="14.00">Label</text>
<polygon fill="none" stroke="black" points="554.8,-226.803 554.8,-247.803 578.8,-247.803 578.8,-226.803 554.8,-226.803"/>
<text text-anchor="start" x="557.8" y="-233.603" font-family="Times,serif" font-size="14.00">A1</text>
<polygon fill="none" stroke="black" points="489.8,-203.803 489.8,-224.803 552.8,-224.803 552.8,-203.803 489.8,-203.803"/>
<text text-anchor="start" x="492.8" y="-210.603" font-family="Times,serif" font-size="14.00">Value </text>
<polygon fill="none" stroke="black" points="554.8,-203.803 554.8,-224.803 578.8,-224.803 578.8,-203.803 554.8,-203.803"/>
<text text-anchor="start" x="557.8" y="-210.603" font-family="Times,serif" font-size="14.00">big</text>
<polygon fill="none" stroke="black" points="489.8,-180.803 489.8,-201.803 552.8,-201.803 552.8,-180.803 489.8,-180.803"/>
<text text-anchor="start" x="492.8" y="-187.603" font-family="Times,serif" font-size="14.00">Witnesses</text>
<polygon fill="none" stroke="black" points="554.8,-180.803 554.8,-201.803 578.8,-201.803 578.8,-180.803 554.8,-180.803"/>
<text text-anchor="start" x="557.8" y="-187.603" font-family="Times,serif" font-size="14.00">A</text>
<polygon fill="none" stroke="black" points="489.8,-157.803 489.8,-178.803 552.8,-178.803 552.8,-157.803 489.8,-157.803"/>
<text text-anchor="start" x="492.8" y="-164.603" font-family="Times,serif" font-size="14.00">Exact</text>
<polygon fill="none" stroke="black" points="554.8,-157.803 554.8,-178.803 578.8,-178.803 578.8,-157.803 554.8,-157.803"/>
<text text-anchor="start" x="567.8" y="-164.603" font-family="Times,serif" font-size="14.00">2</text>
<polygon fill="none" stroke="black" points="489.8,-134.803 489.8,-155.803 552.8,-155.803 552.8,-134.803 489.8,-134.803"/>
<text text-anchor="start" x="492.8" y="-141.603" font-family="Times,serif" font-size="14.00">Near</text>
<polygon fill="none" stroke="black" points="554.8,-134.803 554.8,-155.803 578.8,-155.803 578.8,-134.803 554.8,-134.803"/>
<text text-anchor="start" x="565.8" y="-141.603" font-family="Times,serif" font-size="14.00">[]</text>
<polygon fill="none" stroke="black" points="486.3,-132.303 486.3,-251.303 581.3,-251.303 581.3,-132.303 486.3,-132.303"/>
</g>
<!-- 2 -->
<g id="node2" class="node"><title>2</title>
<ellipse fill="none" stroke="black" cx="1397.89" cy="-159.803" rx="272.886" ry="89.6056"/>
<polygon fill="none" stroke="black" points="1215.89,-194.803 1215.89,-215.803 1278.89,-215.803 1278.89,-194.803 1215.89,-194.803"/>
<text text-anchor="start" x="1218.89" y="-201.603" font-family="Times,serif" font-size="14.00">Label</text>
<polygon fill="none" stroke="black" points="1280.89,-194.803 1280.89,-215.803 1579.89,-215.803 1579.89,-194.803 1280.89,-194.803"/>
<text text-anchor="start" x="1283.89" y="-201.603" font-family="Times,serif" font-size="14.00">B1</text>
<polygon fill="none" stroke="black" points="1215.89,-171.803 1215.89,-192.803 1278.89,-192.803 1278.89,-171.803 1215.89,-171.803"/>
<text text-anchor="start" x="1218.89" y="-178.603" font-family="Times,serif" font-size="14.00">Value </text>
<polygon fill="none" stroke="black" points="1280.89,-171.803 1280.89,-192.803 1579.89,-192.803 1579.89,-171.803 1280.89,-171.803"/>
<text text-anchor="start" x="1283.89" y="-178.603" font-family="Times,serif" font-size="14.00">grey</text>
<polygon fill="none" stroke="black" points="1215.89,-148.803 1215.89,-169.803 1278.89,-169.803 1278.89,-148.803 1215.89,-148.803"/>
<text text-anchor="start" x="1218.89" y="-155.603" font-family="Times,serif" font-size="14.00">Witnesses</text>
<polygon fill="none" stroke="black" points="1280.89,-148.803 1280.89,-169.803 1579.89,-169.803 1579.89,-148.803 1280.89,-148.803"/>
<text text-anchor="start" x="1283.89" y="-155.603" font-family="Times,serif" font-size="14.00">B</text>
<polygon fill="none" stroke="black" points="1215.89,-125.803 1215.89,-146.803 1278.89,-146.803 1278.89,-125.803 1215.89,-125.803"/>
<text text-anchor="start" x="1218.89" y="-132.603" font-family="Times,serif" font-size="14.00">Exact</text>
<polygon fill="none" stroke="black" points="1280.89,-125.803 1280.89,-146.803 1579.89,-146.803 1579.89,-125.803 1280.89,-125.803"/>
<text text-anchor="start" x="1568.89" y="-132.603" font-family="Times,serif" font-size="14.00">2</text>
<polygon fill="none" stroke="black" points="1215.89,-102.803 1215.89,-123.803 1278.89,-123.803 1278.89,-102.803 1215.89,-102.803"/>
<text text-anchor="start" x="1218.89" y="-109.603" font-family="Times,serif" font-size="14.00">Near</text>
<polygon fill="none" stroke="black" points="1280.89,-102.803 1280.89,-123.803 1579.89,-123.803 1579.89,-102.803 1280.89,-102.803"/>
<text text-anchor="start" x="1283.89" y="-109.603" font-family="Times,serif" font-size="14.00">[0.2857142857142857, 0.75, 0.2222222222222222]</text>
<polygon fill="none" stroke="black" points="1212.89,-100.303 1212.89,-219.303 1582.89,-219.303 1582.89,-100.303 1212.89,-100.303"/>
</g>
<!-- 1&#45;&gt;2 -->
<g id="edge2" class="edge"><title>1&#45;&gt;2</title>
<path fill="none" stroke="black" stroke-dasharray="5,2" d="M605.117,-153.999C622.359,-146.48 641.099,-139.705 659.288,-135.803 816.49,-102.073 996.808,-107.178 1139.81,-121.149"/>
<polygon fill="black" stroke="black" points="1139.74,-124.66 1150.04,-122.17 1140.43,-117.695 1139.74,-124.66"/>
<text text-anchor="middle" x="856.666" y="-116.603" font-family="Times,serif" font-size="14.00">0.29</text>
</g>
<!-- 7 -->
<g id="node7" class="node"><title>7</title>
<ellipse fill="none" stroke="black" cx="742.727" cy="-234.803" rx="83.3772" ry="89.6056"/>
<polygon fill="none" stroke="black" points="694.727,-269.803 694.727,-290.803 757.727,-290.803 757.727,-269.803 694.727,-269.803"/>
<text text-anchor="start" x="697.727" y="-276.603" font-family="Times,serif" font-size="14.00">Label</text>
<polygon fill="none" stroke="black" points="759.727,-269.803 759.727,-290.803 790.727,-290.803 790.727,-269.803 759.727,-269.803"/>
<text text-anchor="start" x="762.727" y="-276.603" font-family="Times,serif" font-size="14.00">A2</text>
<polygon fill="none" stroke="black" points="694.727,-246.803 694.727,-267.803 757.727,-267.803 757.727,-246.803 694.727,-246.803"/>
<text text-anchor="start" x="697.727" y="-253.603" font-family="Times,serif" font-size="14.00">Value </text>
<polygon fill="none" stroke="black" points="759.727,-246.803 759.727,-267.803 790.727,-267.803 790.727,-246.803 759.727,-246.803"/>
<text text-anchor="start" x="762.727" y="-253.603" font-family="Times,serif" font-size="14.00">gray</text>
<polygon fill="none" stroke="black" points="694.727,-223.803 694.727,-244.803 757.727,-244.803 757.727,-223.803 694.727,-223.803"/>
<text text-anchor="start" x="697.727" y="-230.603" font-family="Times,serif" font-size="14.00">Witnesses</text>
<polygon fill="none" stroke="black" points="759.727,-223.803 759.727,-244.803 790.727,-244.803 790.727,-223.803 759.727,-223.803"/>
<text text-anchor="start" x="762.727" y="-230.603" font-family="Times,serif" font-size="14.00">A</text>
<polygon fill="none" stroke="black" points="694.727,-200.803 694.727,-221.803 757.727,-221.803 757.727,-200.803 694.727,-200.803"/>
<text text-anchor="start" x="697.727" y="-207.603" font-family="Times,serif" font-size="14.00">Exact</text>
<polygon fill="none" stroke="black" points="759.727,-200.803 759.727,-221.803 790.727,-221.803 790.727,-200.803 759.727,-200.803"/>
<text text-anchor="start" x="779.727" y="-207.603" font-family="Times,serif" font-size="14.00">3</text>
<polygon fill="none" stroke="black" points="694.727,-177.803 694.727,-198.803 757.727,-198.803 757.727,-177.803 694.727,-177.803"/>
<text text-anchor="start" x="697.727" y="-184.603" font-family="Times,serif" font-size="14.00">Near</text>
<polygon fill="none" stroke="black" points="759.727,-177.803 759.727,-198.803 790.727,-198.803 790.727,-177.803 759.727,-177.803"/>
<text text-anchor="start" x="777.727" y="-184.603" font-family="Times,serif" font-size="14.00">[]</text>
<polygon fill="none" stroke="black" points="691.727,-175.303 691.727,-294.303 793.727,-294.303 793.727,-175.303 691.727,-175.303"/>
</g>
<!-- 1&#45;&gt;7 -->
<g id="edge1" class="edge"><title>1&#45;&gt;7</title>
<path fill="none" stroke="black" d="M611.264,-207.692C624.108,-210.361 637.549,-213.154 650.717,-215.89"/>
<polygon fill="black" stroke="black" points="650.216,-219.361 660.719,-217.969 651.64,-212.507 650.216,-219.361"/>
<text text-anchor="middle" x="635.788" y="-216.603" font-family="Times,serif" font-size="14.00">A</text>
</g>
<!-- 8 -->
<g id="node8" class="node"><title>8</title>
<ellipse fill="none" stroke="black" cx="1804.51" cy="-246.803" rx="87.8629" ry="89.6056"/>
<polygon fill="none" stroke="black" points="1753.51,-281.803 1753.51,-302.803 1816.51,-302.803 1816.51,-281.803 1753.51,-281.803"/>
<text text-anchor="start" x="1756.51" y="-288.603" font-family="Times,serif" font-size="14.00">Label</text>
<polygon fill="none" stroke="black" points="1818.51,-281.803 1818.51,-302.803 1855.51,-302.803 1855.51,-281.803 1818.51,-281.803"/>
<text text-anchor="start" x="1821.51" y="-288.603" font-family="Times,serif" font-size="14.00">AB2</text>
<polygon fill="none" stroke="black" points="1753.51,-258.803 1753.51,-279.803 1816.51,-279.803 1816.51,-258.803 1753.51,-258.803"/>
<text text-anchor="start" x="1756.51" y="-265.603" font-family="Times,serif" font-size="14.00">Value </text>
<polygon fill="none" stroke="black" points="1818.51,-258.803 1818.51,-279.803 1855.51,-279.803 1855.51,-258.803 1818.51,-258.803"/>
<text text-anchor="start" x="1821.51" y="-265.603" font-family="Times,serif" font-size="14.00">koala</text>
<polygon fill="none" stroke="black" points="1753.51,-235.803 1753.51,-256.803 1816.51,-256.803 1816.51,-235.803 1753.51,-235.803"/>
<text text-anchor="start" x="1756.51" y="-242.603" font-family="Times,serif" font-size="14.00">Witnesses</text>
<polygon fill="none" stroke="black" points="1818.51,-235.803 1818.51,-256.803 1855.51,-256.803 1855.51,-235.803 1818.51,-235.803"/>
<text text-anchor="start" x="1821.51" y="-242.603" font-family="Times,serif" font-size="14.00">A,B</text>
<polygon fill="none" stroke="black" points="1753.51,-212.803 1753.51,-233.803 1816.51,-233.803 1816.51,-212.803 1753.51,-212.803"/>
<text text-anchor="start" x="1756.51" y="-219.603" font-family="Times,serif" font-size="14.00">Exact</text>
<polygon fill="none" stroke="black" points="1818.51,-212.803 1818.51,-233.803 1855.51,-233.803 1855.51,-212.803 1818.51,-212.803"/>
<text text-anchor="start" x="1844.51" y="-219.603" font-family="Times,serif" font-size="14.00">5</text>
<polygon fill="none" stroke="black" points="1753.51,-189.803 1753.51,-210.803 1816.51,-210.803 1816.51,-189.803 1753.51,-189.803"/>
<text text-anchor="start" x="1756.51" y="-196.603" font-family="Times,serif" font-size="14.00">Near</text>
<polygon fill="none" stroke="black" points="1818.51,-189.803 1818.51,-210.803 1855.51,-210.803 1855.51,-189.803 1818.51,-189.803"/>
<text text-anchor="start" x="1842.51" y="-196.603" font-family="Times,serif" font-size="14.00">[]</text>
<polygon fill="none" stroke="black" points="1750.51,-187.303 1750.51,-306.303 1858.51,-306.303 1858.51,-187.303 1750.51,-187.303"/>
</g>
<!-- 2&#45;&gt;8 -->
<g id="edge3" class="edge"><title>2&#45;&gt;8</title>
<path fill="none" stroke="black" d="M1626.92,-208.833C1655.47,-214.972 1683.33,-220.962 1708.17,-226.302"/>
<polygon fill="black" stroke="black" points="1707.74,-229.791 1718.25,-228.471 1709.21,-222.947 1707.74,-229.791"/>
<text text-anchor="middle" x="1693.83" y="-226.603" font-family="Times,serif" font-size="14.00">B</text>
</g>
<!-- 3 -->
<g id="node3" class="node"><title>3</title>
<ellipse fill="none" stroke="black" cx="2038.87" cy="-246.803" rx="87.8629" ry="89.6056"/>
<polygon fill="none" stroke="black" points="1987.87,-281.803 1987.87,-302.803 2050.87,-302.803 2050.87,-281.803 1987.87,-281.803"/>
<text text-anchor="start" x="1990.87" y="-288.603" font-family="Times,serif" font-size="14.00">Label</text>
<polygon fill="none" stroke="black" points="2052.87,-281.803 2052.87,-302.803 2089.87,-302.803 2089.87,-281.803 2052.87,-281.803"/>
<text text-anchor="start" x="2055.87" y="-288.603" font-family="Times,serif" font-size="14.00">end</text>
<polygon fill="none" stroke="black" points="1987.87,-258.803 1987.87,-279.803 2050.87,-279.803 2050.87,-258.803 1987.87,-258.803"/>
<text text-anchor="start" x="1990.87" y="-265.603" font-family="Times,serif" font-size="14.00">Value </text>
<polygon fill="none" stroke="black" points="2052.87,-258.803 2052.87,-279.803 2089.87,-279.803 2089.87,-258.803 2052.87,-258.803"/>
<text text-anchor="start" x="2055.87" y="-265.603" font-family="Times,serif" font-size="14.00">[end]</text>
<polygon fill="none" stroke="black" points="1987.87,-235.803 1987.87,-256.803 2050.87,-256.803 2050.87,-235.803 1987.87,-235.803"/>
<text text-anchor="start" x="1990.87" y="-242.603" font-family="Times,serif" font-size="14.00">Witnesses</text>
<polygon fill="none" stroke="black" points="2052.87,-235.803 2052.87,-256.803 2089.87,-256.803 2089.87,-235.803 2052.87,-235.803"/>
<text text-anchor="start" x="2055.87" y="-242.603" font-family="Times,serif" font-size="14.00">None</text>
<polygon fill="none" stroke="black" points="1987.87,-212.803 1987.87,-233.803 2050.87,-233.803 2050.87,-212.803 1987.87,-212.803"/>
<text text-anchor="start" x="1990.87" y="-219.603" font-family="Times,serif" font-size="14.00">Exact</text>
<polygon fill="none" stroke="black" points="2052.87,-212.803 2052.87,-233.803 2089.87,-233.803 2089.87,-212.803 2052.87,-212.803"/>
<text text-anchor="start" x="2078.87" y="-219.603" font-family="Times,serif" font-size="14.00">6</text>
<polygon fill="none" stroke="black" points="1987.87,-189.803 1987.87,-210.803 2050.87,-210.803 2050.87,-189.803 1987.87,-189.803"/>
<text text-anchor="start" x="1990.87" y="-196.603" font-family="Times,serif" font-size="14.00">Near</text>
<polygon fill="none" stroke="black" points="2052.87,-189.803 2052.87,-210.803 2089.87,-210.803 2089.87,-189.803 2052.87,-189.803"/>
<text text-anchor="start" x="2076.87" y="-196.603" font-family="Times,serif" font-size="14.00">[]</text>
<polygon fill="none" stroke="black" points="1984.87,-187.303 1984.87,-306.303 2092.87,-306.303 2092.87,-187.303 1984.87,-187.303"/>
</g>
<!-- 4 -->
<g id="node4" class="node"><title>4</title>
<ellipse fill="none" stroke="black" cx="975.554" cy="-285.803" rx="88.2768" ry="89.6056"/>
<polygon fill="none" stroke="black" points="924.554,-320.803 924.554,-341.803 987.554,-341.803 987.554,-320.803 924.554,-320.803"/>
<text text-anchor="start" x="927.554" y="-327.603" font-family="Times,serif" font-size="14.00">Label</text>
<polygon fill="none" stroke="black" points="989.554,-320.803 989.554,-341.803 1027.55,-341.803 1027.55,-320.803 989.554,-320.803"/>
<text text-anchor="start" x="992.554" y="-327.603" font-family="Times,serif" font-size="14.00">A3</text>
<polygon fill="none" stroke="black" points="924.554,-297.803 924.554,-318.803 987.554,-318.803 987.554,-297.803 924.554,-297.803"/>
<text text-anchor="start" x="927.554" y="-304.603" font-family="Times,serif" font-size="14.00">Value </text>
<polygon fill="none" stroke="black" points="989.554,-297.803 989.554,-318.803 1027.55,-318.803 1027.55,-297.803 989.554,-297.803"/>
<text text-anchor="start" x="992.554" y="-304.603" font-family="Times,serif" font-size="14.00">fuzzy</text>
<polygon fill="none" stroke="black" points="924.554,-274.803 924.554,-295.803 987.554,-295.803 987.554,-274.803 924.554,-274.803"/>
<text text-anchor="start" x="927.554" y="-281.603" font-family="Times,serif" font-size="14.00">Witnesses</text>
<polygon fill="none" stroke="black" points="989.554,-274.803 989.554,-295.803 1027.55,-295.803 1027.55,-274.803 989.554,-274.803"/>
<text text-anchor="start" x="992.554" y="-281.603" font-family="Times,serif" font-size="14.00">A</text>
<polygon fill="none" stroke="black" points="924.554,-251.803 924.554,-272.803 987.554,-272.803 987.554,-251.803 924.554,-251.803"/>
<text text-anchor="start" x="927.554" y="-258.603" font-family="Times,serif" font-size="14.00">Exact</text>
<polygon fill="none" stroke="black" points="989.554,-251.803 989.554,-272.803 1027.55,-272.803 1027.55,-251.803 989.554,-251.803"/>
<text text-anchor="start" x="1016.55" y="-258.603" font-family="Times,serif" font-size="14.00">4</text>
<polygon fill="none" stroke="black" points="924.554,-228.803 924.554,-249.803 987.554,-249.803 987.554,-228.803 924.554,-228.803"/>
<text text-anchor="start" x="927.554" y="-235.603" font-family="Times,serif" font-size="14.00">Near</text>
<polygon fill="none" stroke="black" points="989.554,-228.803 989.554,-249.803 1027.55,-249.803 1027.55,-228.803 989.554,-228.803"/>
<text text-anchor="start" x="1014.55" y="-235.603" font-family="Times,serif" font-size="14.00">[]</text>
<polygon fill="none" stroke="black" points="921.054,-226.303 921.054,-345.303 1030.05,-345.303 1030.05,-226.303 921.054,-226.303"/>
</g>
<!-- 4&#45;&gt;2 -->
<g id="edge5" class="edge"><title>4&#45;&gt;2</title>
<path fill="none" stroke="black" stroke-dasharray="5,2" d="M1060.6,-260.607C1096.99,-249.702 1141.37,-236.397 1185.81,-223.077"/>
<polygon fill="black" stroke="black" points="1187.01,-226.369 1195.59,-220.145 1185,-219.664 1187.01,-226.369"/>
<text text-anchor="middle" x="1094.44" y="-255.603" font-family="Times,serif" font-size="14.00">0.22</text>
</g>
<!-- 4&#45;&gt;8 -->
<g id="edge4" class="edge"><title>4&#45;&gt;8</title>
<path fill="none" stroke="black" d="M1064.03,-283.84C1195.75,-280.56 1452.8,-272.892 1670.83,-258.803 1682.55,-258.045 1694.84,-257.116 1707.02,-256.113"/>
<polygon fill="black" stroke="black" points="1707.53,-259.582 1717.2,-255.256 1706.94,-252.607 1707.53,-259.582"/>
<text text-anchor="middle" x="1397.89" y="-285.603" font-family="Times,serif" font-size="14.00">A</text>
</g>
<!-- 5 -->
<g id="node5" class="node"><title>5</title>
<ellipse fill="none" stroke="black" cx="323.458" cy="-89.8026" rx="84.7059" ry="89.6056"/>
<polygon fill="none" stroke="black" points="274.458,-124.803 274.458,-145.803 337.458,-145.803 337.458,-124.803 274.458,-124.803"/>
<text text-anchor="start" x="277.458" y="-131.603" font-family="Times,serif" font-size="14.00">Label</text>
<polygon fill="none" stroke="black" points="339.458,-124.803 339.458,-145.803 372.458,-145.803 372.458,-124.803 339.458,-124.803"/>
<text text-anchor="start" x="342.458" y="-131.603" font-family="Times,serif" font-size="14.00">AB1</text>
<polygon fill="none" stroke="black" points="274.458,-101.803 274.458,-122.803 337.458,-122.803 337.458,-101.803 274.458,-101.803"/>
<text text-anchor="start" x="277.458" y="-108.603" font-family="Times,serif" font-size="14.00">Value </text>
<polygon fill="none" stroke="black" points="339.458,-101.803 339.458,-122.803 372.458,-122.803 372.458,-101.803 339.458,-101.803"/>
<text text-anchor="start" x="342.458" y="-108.603" font-family="Times,serif" font-size="14.00">The</text>
<polygon fill="none" stroke="black" points="274.458,-78.8026 274.458,-99.8026 337.458,-99.8026 337.458,-78.8026 274.458,-78.8026"/>
<text text-anchor="start" x="277.458" y="-85.6026" font-family="Times,serif" font-size="14.00">Witnesses</text>
<polygon fill="none" stroke="black" points="339.458,-78.8026 339.458,-99.8026 372.458,-99.8026 372.458,-78.8026 339.458,-78.8026"/>
<text text-anchor="start" x="342.458" y="-85.6026" font-family="Times,serif" font-size="14.00">A,B</text>
<polygon fill="none" stroke="black" points="274.458,-55.8026 274.458,-76.8026 337.458,-76.8026 337.458,-55.8026 274.458,-55.8026"/>
<text text-anchor="start" x="277.458" y="-62.6026" font-family="Times,serif" font-size="14.00">Exact</text>
<polygon fill="none" stroke="black" points="339.458,-55.8026 339.458,-76.8026 372.458,-76.8026 372.458,-55.8026 339.458,-55.8026"/>
<text text-anchor="start" x="361.458" y="-62.6026" font-family="Times,serif" font-size="14.00">1</text>
<polygon fill="none" stroke="black" points="274.458,-32.8026 274.458,-53.8026 337.458,-53.8026 337.458,-32.8026 274.458,-32.8026"/>
<text text-anchor="start" x="277.458" y="-39.6026" font-family="Times,serif" font-size="14.00">Near</text>
<polygon fill="none" stroke="black" points="339.458,-32.8026 339.458,-53.8026 372.458,-53.8026 372.458,-32.8026 339.458,-32.8026"/>
<text text-anchor="start" x="359.458" y="-39.6026" font-family="Times,serif" font-size="14.00">[]</text>
<polygon fill="none" stroke="black" points="271.458,-30.3026 271.458,-149.303 375.458,-149.303 375.458,-30.3026 271.458,-30.3026"/>
</g>
<!-- 5&#45;&gt;1 -->
<g id="edge6" class="edge"><title>5&#45;&gt;1</title>
<path fill="none" stroke="black" d="M400.854,-127.204C417.512,-135.36 435.192,-144.016 452.014,-152.252"/>
<polygon fill="black" stroke="black" points="450.739,-155.524 461.26,-156.778 453.817,-149.237 450.739,-155.524"/>
<text text-anchor="middle" x="431.811" y="-148.603" font-family="Times,serif" font-size="14.00">A</text>
</g>
<!-- 5&#45;&gt;2 -->
<g id="edge7" class="edge"><title>5&#45;&gt;2</title>
<path fill="none" stroke="black" d="M407.981,-80.449C446.008,-76.9476 491.625,-73.8026 532.8,-73.8026 532.8,-73.8026 532.8,-73.8026 976.554,-73.8026 1044.13,-73.8026 1116.59,-84.6021 1182,-98.5472"/>
<polygon fill="black" stroke="black" points="1181.5,-102.02 1192.01,-100.719 1182.98,-95.1791 1181.5,-102.02"/>
<text text-anchor="middle" x="742.727" y="-77.6026" font-family="Times,serif" font-size="14.00">B</text>
</g>
<!-- 6 -->
<g id="node6" class="node"><title>6</title>
<ellipse fill="none" stroke="black" cx="89.8026" cy="-89.8026" rx="89.6056" ry="89.6056"/>
<polygon fill="none" stroke="black" points="37.8026,-124.803 37.8026,-145.803 100.803,-145.803 100.803,-124.803 37.8026,-124.803"/>
<text text-anchor="start" x="40.8026" y="-131.603" font-family="Times,serif" font-size="14.00">Label</text>
<polygon fill="none" stroke="black" points="102.803,-124.803 102.803,-145.803 142.803,-145.803 142.803,-124.803 102.803,-124.803"/>
<text text-anchor="start" x="105.803" y="-131.603" font-family="Times,serif" font-size="14.00">start</text>
<polygon fill="none" stroke="black" points="37.8026,-101.803 37.8026,-122.803 100.803,-122.803 100.803,-101.803 37.8026,-101.803"/>
<text text-anchor="start" x="40.8026" y="-108.603" font-family="Times,serif" font-size="14.00">Value </text>
<polygon fill="none" stroke="black" points="102.803,-101.803 102.803,-122.803 142.803,-122.803 142.803,-101.803 102.803,-101.803"/>
<text text-anchor="start" x="105.803" y="-108.603" font-family="Times,serif" font-size="14.00">[start]</text>
<polygon fill="none" stroke="black" points="37.8026,-78.8026 37.8026,-99.8026 100.803,-99.8026 100.803,-78.8026 37.8026,-78.8026"/>
<text text-anchor="start" x="40.8026" y="-85.6026" font-family="Times,serif" font-size="14.00">Witnesses</text>
<polygon fill="none" stroke="black" points="102.803,-78.8026 102.803,-99.8026 142.803,-99.8026 142.803,-78.8026 102.803,-78.8026"/>
<text text-anchor="start" x="105.803" y="-85.6026" font-family="Times,serif" font-size="14.00">None</text>
<polygon fill="none" stroke="black" points="37.8026,-55.8026 37.8026,-76.8026 100.803,-76.8026 100.803,-55.8026 37.8026,-55.8026"/>
<text text-anchor="start" x="40.8026" y="-62.6026" font-family="Times,serif" font-size="14.00">Exact</text>
<polygon fill="none" stroke="black" points="102.803,-55.8026 102.803,-76.8026 142.803,-76.8026 142.803,-55.8026 102.803,-55.8026"/>
<text text-anchor="start" x="131.803" y="-62.6026" font-family="Times,serif" font-size="14.00">0</text>
<polygon fill="none" stroke="black" points="37.8026,-32.8026 37.8026,-53.8026 100.803,-53.8026 100.803,-32.8026 37.8026,-32.8026"/>
<text text-anchor="start" x="40.8026" y="-39.6026" font-family="Times,serif" font-size="14.00">Near</text>
<polygon fill="none" stroke="black" points="102.803,-32.8026 102.803,-53.8026 142.803,-53.8026 142.803,-32.8026 102.803,-32.8026"/>
<text text-anchor="start" x="129.803" y="-39.6026" font-family="Times,serif" font-size="14.00">[]</text>
<polygon fill="none" stroke="black" points="34.3026,-30.3026 34.3026,-149.303 145.303,-149.303 145.303,-30.3026 34.3026,-30.3026"/>
</g>
<!-- 6&#45;&gt;5 -->
<g id="edge8" class="edge"><title>6&#45;&gt;5</title>
<path fill="none" stroke="black" d="M179.704,-89.8026C195.509,-89.8026 212.022,-89.8026 227.975,-89.8026"/>
<polygon fill="black" stroke="black" points="228.364,-93.3027 238.364,-89.8026 228.364,-86.3027 228.364,-93.3027"/>
<text text-anchor="middle" x="209.105" y="-93.6026" font-family="Times,serif" font-size="14.00">A,B</text>
</g>
<!-- 7&#45;&gt;2 -->
<g id="edge9" class="edge"><title>7&#45;&gt;2</title>
<path fill="none" stroke="black" stroke-dasharray="5,2" d="M818.155,-195.562C839.826,-185.959 863.934,-176.966 887.166,-171.803 960.869,-155.422 1042.04,-148.625 1117.53,-146.844"/>
<polygon fill="black" stroke="black" points="1117.74,-150.34 1127.66,-146.634 1117.59,-143.342 1117.74,-150.34"/>
<text text-anchor="middle" x="975.554" y="-175.603" font-family="Times,serif" font-size="14.00">0.75</text>
</g>
<!-- 7&#45;&gt;4 -->
<g id="edge10" class="edge"><title>7&#45;&gt;4</title>
<path fill="none" stroke="black" d="M824.783,-252.712C842.32,-256.586 861.022,-260.718 879.054,-264.702"/>
<polygon fill="black" stroke="black" points="878.472,-268.158 888.992,-266.898 879.983,-261.323 878.472,-268.158"/>
<text text-anchor="middle" x="856.666" y="-265.603" font-family="Times,serif" font-size="14.00">A</text>
</g>
<!-- 8&#45;&gt;3 -->
<g id="edge11" class="edge"><title>8&#45;&gt;3</title>
<path fill="none" stroke="black" d="M1892.36,-246.803C1908.12,-246.803 1924.64,-246.803 1940.67,-246.803"/>
<polygon fill="black" stroke="black" points="1941.12,-250.303 1951.12,-246.803 1941.12,-243.303 1941.12,-250.303"/>
<text text-anchor="middle" x="1921.69" y="-250.603" font-family="Times,serif" font-size="14.00">A,B</text>
</g>
</g>
</svg>
