<?xml version="1.0" encoding="UTF-8" standalone="no"?>
<!DOCTYPE svg PUBLIC "-//W3C//DTD SVG 1.1//EN"
 "http://www.w3.org/Graphics/SVG/1.1/DTD/svg11.dtd">
<!-- Generated by graphviz version 2.38.0 (20140413.2041)
 -->
<!-- Title: %3 Pages: 1 -->
<svg width="1750pt" height="335pt"
 viewBox="0.00 0.00 1749.89 335.08" xmlns="http://www.w3.org/2000/svg" xmlns:xlink="http://www.w3.org/1999/xlink">
<g id="graph0" class="graph" transform="scale(1 1) rotate(0) translate(4 331.078)">
<title>%3</title>
<polygon fill="white" stroke="none" points="-4,4 -4,-331.078 1745.89,-331.078 1745.89,4 -4,4"/>
<!-- 1 -->
<g id="node1" class="node"><title>1</title>
<ellipse fill="none" stroke="black" cx="528.143" cy="-159.539" rx="78.4777" ry="73.5782"/>
<polygon fill="none" stroke="black" points="484.143,-183.539 484.143,-204.539 547.143,-204.539 547.143,-183.539 484.143,-183.539"/>
<text text-anchor="start" x="487.143" y="-190.339" font-family="Times,serif" font-size="14.00">Value </text>
<polygon fill="none" stroke="black" points="549.143,-183.539 549.143,-204.539 573.143,-204.539 573.143,-183.539 549.143,-183.539"/>
<text text-anchor="start" x="552.143" y="-190.339" font-family="Times,serif" font-size="14.00">big</text>
<polygon fill="none" stroke="black" points="484.143,-160.539 484.143,-181.539 547.143,-181.539 547.143,-160.539 484.143,-160.539"/>
<text text-anchor="start" x="487.143" y="-167.339" font-family="Times,serif" font-size="14.00">Witnesses</text>
<polygon fill="none" stroke="black" points="549.143,-160.539 549.143,-181.539 573.143,-181.539 573.143,-160.539 549.143,-160.539"/>
<text text-anchor="start" x="552.143" y="-167.339" font-family="Times,serif" font-size="14.00">A</text>
<polygon fill="none" stroke="black" points="484.143,-137.539 484.143,-158.539 547.143,-158.539 547.143,-137.539 484.143,-137.539"/>
<text text-anchor="start" x="487.143" y="-144.339" font-family="Times,serif" font-size="14.00">Exact</text>
<polygon fill="none" stroke="black" points="549.143,-137.539 549.143,-158.539 573.143,-158.539 573.143,-137.539 549.143,-137.539"/>
<text text-anchor="start" x="562.143" y="-144.339" font-family="Times,serif" font-size="14.00">2</text>
<polygon fill="none" stroke="black" points="484.143,-114.539 484.143,-135.539 547.143,-135.539 547.143,-114.539 484.143,-114.539"/>
<text text-anchor="start" x="487.143" y="-121.339" font-family="Times,serif" font-size="14.00">Near</text>
<polygon fill="none" stroke="black" points="549.143,-114.539 549.143,-135.539 573.143,-135.539 573.143,-114.539 549.143,-114.539"/>
<text text-anchor="start" x="562.143" y="-121.339" font-family="Times,serif" font-size="14.00">0</text>
<polygon fill="none" stroke="black" points="480.643,-111.539 480.643,-207.539 575.643,-207.539 575.643,-111.539 480.643,-111.539"/>
</g>
<!-- 2 -->
<g id="node2" class="node"><title>2</title>
<ellipse fill="none" stroke="black" cx="1202.72" cy="-143.539" rx="83.3772" ry="73.5782"/>
<polygon fill="none" stroke="black" points="1154.72,-167.539 1154.72,-188.539 1217.72,-188.539 1217.72,-167.539 1154.72,-167.539"/>
<text text-anchor="start" x="1157.72" y="-174.339" font-family="Times,serif" font-size="14.00">Value </text>
<polygon fill="none" stroke="black" points="1219.72,-167.539 1219.72,-188.539 1250.72,-188.539 1250.72,-167.539 1219.72,-167.539"/>
<text text-anchor="start" x="1222.72" y="-174.339" font-family="Times,serif" font-size="14.00">grey</text>
<polygon fill="none" stroke="black" points="1154.72,-144.539 1154.72,-165.539 1217.72,-165.539 1217.72,-144.539 1154.72,-144.539"/>
<text text-anchor="start" x="1157.72" y="-151.339" font-family="Times,serif" font-size="14.00">Witnesses</text>
<polygon fill="none" stroke="black" points="1219.72,-144.539 1219.72,-165.539 1250.72,-165.539 1250.72,-144.539 1219.72,-144.539"/>
<text text-anchor="start" x="1222.72" y="-151.339" font-family="Times,serif" font-size="14.00">B</text>
<polygon fill="none" stroke="black" points="1154.72,-121.539 1154.72,-142.539 1217.72,-142.539 1217.72,-121.539 1154.72,-121.539"/>
<text text-anchor="start" x="1157.72" y="-128.339" font-family="Times,serif" font-size="14.00">Exact</text>
<polygon fill="none" stroke="black" points="1219.72,-121.539 1219.72,-142.539 1250.72,-142.539 1250.72,-121.539 1219.72,-121.539"/>
<text text-anchor="start" x="1239.72" y="-128.339" font-family="Times,serif" font-size="14.00">2</text>
<polygon fill="none" stroke="black" points="1154.72,-98.5391 1154.72,-119.539 1217.72,-119.539 1217.72,-98.5391 1154.72,-98.5391"/>
<text text-anchor="start" x="1157.72" y="-105.339" font-family="Times,serif" font-size="14.00">Near</text>
<polygon fill="none" stroke="black" points="1219.72,-98.5391 1219.72,-119.539 1250.72,-119.539 1250.72,-98.5391 1219.72,-98.5391"/>
<text text-anchor="start" x="1239.72" y="-105.339" font-family="Times,serif" font-size="14.00">0</text>
<polygon fill="none" stroke="black" points="1151.72,-95.5391 1151.72,-191.539 1253.72,-191.539 1253.72,-95.5391 1151.72,-95.5391"/>
</g>
<!-- 1&#45;&gt;2 -->
<g id="edge2" class="edge"><title>1&#45;&gt;2</title>
<path fill="none" stroke="black" stroke-dasharray="5,2" d="M601.291,-132.188C618.22,-126.942 636.363,-122.245 653.632,-119.539 812.861,-94.586 1001.06,-113.107 1110.37,-128.532"/>
<polygon fill="black" stroke="black" points="1109.97,-132.012 1120.37,-129.966 1110.97,-125.083 1109.97,-132.012"/>
<text text-anchor="middle" x="851.009" y="-112.339" font-family="Times,serif" font-size="14.00">0.29</text>
</g>
<!-- 7 -->
<g id="node7" class="node"><title>7</title>
<ellipse fill="none" stroke="black" cx="737.07" cy="-202.539" rx="83.3772" ry="73.5782"/>
<polygon fill="none" stroke="black" points="689.07,-226.539 689.07,-247.539 752.07,-247.539 752.07,-226.539 689.07,-226.539"/>
<text text-anchor="start" x="692.07" y="-233.339" font-family="Times,serif" font-size="14.00">Value </text>
<polygon fill="none" stroke="black" points="754.07,-226.539 754.07,-247.539 785.07,-247.539 785.07,-226.539 754.07,-226.539"/>
<text text-anchor="start" x="757.07" y="-233.339" font-family="Times,serif" font-size="14.00">gray</text>
<polygon fill="none" stroke="black" points="689.07,-203.539 689.07,-224.539 752.07,-224.539 752.07,-203.539 689.07,-203.539"/>
<text text-anchor="start" x="692.07" y="-210.339" font-family="Times,serif" font-size="14.00">Witnesses</text>
<polygon fill="none" stroke="black" points="754.07,-203.539 754.07,-224.539 785.07,-224.539 785.07,-203.539 754.07,-203.539"/>
<text text-anchor="start" x="757.07" y="-210.339" font-family="Times,serif" font-size="14.00">A</text>
<polygon fill="none" stroke="black" points="689.07,-180.539 689.07,-201.539 752.07,-201.539 752.07,-180.539 689.07,-180.539"/>
<text text-anchor="start" x="692.07" y="-187.339" font-family="Times,serif" font-size="14.00">Exact</text>
<polygon fill="none" stroke="black" points="754.07,-180.539 754.07,-201.539 785.07,-201.539 785.07,-180.539 754.07,-180.539"/>
<text text-anchor="start" x="774.07" y="-187.339" font-family="Times,serif" font-size="14.00">3</text>
<polygon fill="none" stroke="black" points="689.07,-157.539 689.07,-178.539 752.07,-178.539 752.07,-157.539 689.07,-157.539"/>
<text text-anchor="start" x="692.07" y="-164.339" font-family="Times,serif" font-size="14.00">Near</text>
<polygon fill="none" stroke="black" points="754.07,-157.539 754.07,-178.539 785.07,-178.539 785.07,-157.539 754.07,-157.539"/>
<text text-anchor="start" x="774.07" y="-164.339" font-family="Times,serif" font-size="14.00">0</text>
<polygon fill="none" stroke="black" points="686.07,-154.539 686.07,-250.539 788.07,-250.539 788.07,-154.539 686.07,-154.539"/>
</g>
<!-- 1&#45;&gt;7 -->
<g id="edge1" class="edge"><title>1&#45;&gt;7</title>
<path fill="none" stroke="black" d="M605.02,-175.307C618.293,-178.065 632.219,-180.959 645.835,-183.788"/>
<polygon fill="black" stroke="black" points="645.177,-187.226 655.68,-185.834 646.601,-180.372 645.177,-187.226"/>
<text text-anchor="middle" x="630.132" y="-185.339" font-family="Times,serif" font-size="14.00">A</text>
</g>
<!-- 8 -->
<g id="node8" class="node"><title>8</title>
<ellipse fill="none" stroke="black" cx="1419.84" cy="-218.539" rx="87.8629" ry="73.5782"/>
<polygon fill="none" stroke="black" points="1368.84,-242.539 1368.84,-263.539 1431.84,-263.539 1431.84,-242.539 1368.84,-242.539"/>
<text text-anchor="start" x="1371.84" y="-249.339" font-family="Times,serif" font-size="14.00">Value </text>
<polygon fill="none" stroke="black" points="1433.84,-242.539 1433.84,-263.539 1470.84,-263.539 1470.84,-242.539 1433.84,-242.539"/>
<text text-anchor="start" x="1436.84" y="-249.339" font-family="Times,serif" font-size="14.00">koala</text>
<polygon fill="none" stroke="black" points="1368.84,-219.539 1368.84,-240.539 1431.84,-240.539 1431.84,-219.539 1368.84,-219.539"/>
<text text-anchor="start" x="1371.84" y="-226.339" font-family="Times,serif" font-size="14.00">Witnesses</text>
<polygon fill="none" stroke="black" points="1433.84,-219.539 1433.84,-240.539 1470.84,-240.539 1470.84,-219.539 1433.84,-219.539"/>
<text text-anchor="start" x="1436.84" y="-226.339" font-family="Times,serif" font-size="14.00">A,B</text>
<polygon fill="none" stroke="black" points="1368.84,-196.539 1368.84,-217.539 1431.84,-217.539 1431.84,-196.539 1368.84,-196.539"/>
<text text-anchor="start" x="1371.84" y="-203.339" font-family="Times,serif" font-size="14.00">Exact</text>
<polygon fill="none" stroke="black" points="1433.84,-196.539 1433.84,-217.539 1470.84,-217.539 1470.84,-196.539 1433.84,-196.539"/>
<text text-anchor="start" x="1459.84" y="-203.339" font-family="Times,serif" font-size="14.00">5</text>
<polygon fill="none" stroke="black" points="1368.84,-173.539 1368.84,-194.539 1431.84,-194.539 1431.84,-173.539 1368.84,-173.539"/>
<text text-anchor="start" x="1371.84" y="-180.339" font-family="Times,serif" font-size="14.00">Near</text>
<polygon fill="none" stroke="black" points="1433.84,-173.539 1433.84,-194.539 1470.84,-194.539 1470.84,-173.539 1433.84,-173.539"/>
<text text-anchor="start" x="1459.84" y="-180.339" font-family="Times,serif" font-size="14.00">0</text>
<polygon fill="none" stroke="black" points="1365.84,-170.539 1365.84,-266.539 1473.84,-266.539 1473.84,-170.539 1365.84,-170.539"/>
</g>
<!-- 2&#45;&gt;8 -->
<g id="edge3" class="edge"><title>2&#45;&gt;8</title>
<path fill="none" stroke="black" d="M1280.48,-170.298C1296.06,-175.733 1312.6,-181.496 1328.6,-187.076"/>
<polygon fill="black" stroke="black" points="1327.89,-190.535 1338.49,-190.523 1330.2,-183.926 1327.89,-190.535"/>
<text text-anchor="middle" x="1309.16" y="-185.339" font-family="Times,serif" font-size="14.00">B</text>
</g>
<!-- 3 -->
<g id="node3" class="node"><title>3</title>
<ellipse fill="none" stroke="black" cx="1654.21" cy="-218.539" rx="87.8629" ry="73.5782"/>
<polygon fill="none" stroke="black" points="1603.21,-242.539 1603.21,-263.539 1666.21,-263.539 1666.21,-242.539 1603.21,-242.539"/>
<text text-anchor="start" x="1606.21" y="-249.339" font-family="Times,serif" font-size="14.00">Value </text>
<polygon fill="none" stroke="black" points="1668.21,-242.539 1668.21,-263.539 1705.21,-263.539 1705.21,-242.539 1668.21,-242.539"/>
<text text-anchor="start" x="1671.21" y="-249.339" font-family="Times,serif" font-size="14.00">[end]</text>
<polygon fill="none" stroke="black" points="1603.21,-219.539 1603.21,-240.539 1666.21,-240.539 1666.21,-219.539 1603.21,-219.539"/>
<text text-anchor="start" x="1606.21" y="-226.339" font-family="Times,serif" font-size="14.00">Witnesses</text>
<polygon fill="none" stroke="black" points="1668.21,-219.539 1668.21,-240.539 1705.21,-240.539 1705.21,-219.539 1668.21,-219.539"/>
<text text-anchor="start" x="1671.21" y="-226.339" font-family="Times,serif" font-size="14.00">None</text>
<polygon fill="none" stroke="black" points="1603.21,-196.539 1603.21,-217.539 1666.21,-217.539 1666.21,-196.539 1603.21,-196.539"/>
<text text-anchor="start" x="1606.21" y="-203.339" font-family="Times,serif" font-size="14.00">Exact</text>
<polygon fill="none" stroke="black" points="1668.21,-196.539 1668.21,-217.539 1705.21,-217.539 1705.21,-196.539 1668.21,-196.539"/>
<text text-anchor="start" x="1694.21" y="-203.339" font-family="Times,serif" font-size="14.00">6</text>
<polygon fill="none" stroke="black" points="1603.21,-173.539 1603.21,-194.539 1666.21,-194.539 1666.21,-173.539 1603.21,-173.539"/>
<text text-anchor="start" x="1606.21" y="-180.339" font-family="Times,serif" font-size="14.00">Near</text>
<polygon fill="none" stroke="black" points="1668.21,-173.539 1668.21,-194.539 1705.21,-194.539 1705.21,-173.539 1668.21,-173.539"/>
<text text-anchor="start" x="1694.21" y="-180.339" font-family="Times,serif" font-size="14.00">0</text>
<polygon fill="none" stroke="black" points="1600.21,-170.539 1600.21,-266.539 1708.21,-266.539 1708.21,-170.539 1600.21,-170.539"/>
</g>
<!-- 4 -->
<g id="node4" class="node"><title>4</title>
<ellipse fill="none" stroke="black" cx="969.897" cy="-253.539" rx="88.2768" ry="73.5782"/>
<polygon fill="none" stroke="black" points="918.897,-277.539 918.897,-298.539 981.897,-298.539 981.897,-277.539 918.897,-277.539"/>
<text text-anchor="start" x="921.897" y="-284.339" font-family="Times,serif" font-size="14.00">Value </text>
<polygon fill="none" stroke="black" points="983.897,-277.539 983.897,-298.539 1021.9,-298.539 1021.9,-277.539 983.897,-277.539"/>
<text text-anchor="start" x="986.897" y="-284.339" font-family="Times,serif" font-size="14.00">fuzzy</text>
<polygon fill="none" stroke="black" points="918.897,-254.539 918.897,-275.539 981.897,-275.539 981.897,-254.539 918.897,-254.539"/>
<text text-anchor="start" x="921.897" y="-261.339" font-family="Times,serif" font-size="14.00">Witnesses</text>
<polygon fill="none" stroke="black" points="983.897,-254.539 983.897,-275.539 1021.9,-275.539 1021.9,-254.539 983.897,-254.539"/>
<text text-anchor="start" x="986.897" y="-261.339" font-family="Times,serif" font-size="14.00">A</text>
<polygon fill="none" stroke="black" points="918.897,-231.539 918.897,-252.539 981.897,-252.539 981.897,-231.539 918.897,-231.539"/>
<text text-anchor="start" x="921.897" y="-238.339" font-family="Times,serif" font-size="14.00">Exact</text>
<polygon fill="none" stroke="black" points="983.897,-231.539 983.897,-252.539 1021.9,-252.539 1021.9,-231.539 983.897,-231.539"/>
<text text-anchor="start" x="1010.9" y="-238.339" font-family="Times,serif" font-size="14.00">4</text>
<polygon fill="none" stroke="black" points="918.897,-208.539 918.897,-229.539 981.897,-229.539 981.897,-208.539 918.897,-208.539"/>
<text text-anchor="start" x="921.897" y="-215.339" font-family="Times,serif" font-size="14.00">Near</text>
<polygon fill="none" stroke="black" points="983.897,-208.539 983.897,-229.539 1021.9,-229.539 1021.9,-208.539 983.897,-208.539"/>
<text text-anchor="start" x="1010.9" y="-215.339" font-family="Times,serif" font-size="14.00">0</text>
<polygon fill="none" stroke="black" points="915.397,-205.539 915.397,-301.539 1024.4,-301.539 1024.4,-205.539 915.397,-205.539"/>
</g>
<!-- 4&#45;&gt;2 -->
<g id="edge5" class="edge"><title>4&#45;&gt;2</title>
<path fill="none" stroke="black" stroke-dasharray="5,2" d="M1047.12,-217.216C1070.3,-206.167 1095.88,-193.977 1119.45,-182.746"/>
<polygon fill="black" stroke="black" points="1121.2,-185.791 1128.72,-178.33 1118.19,-179.472 1121.2,-185.791"/>
<text text-anchor="middle" x="1088.79" y="-205.339" font-family="Times,serif" font-size="14.00">0.22</text>
</g>
<!-- 4&#45;&gt;8 -->
<g id="edge4" class="edge"><title>4&#45;&gt;8</title>
<path fill="none" stroke="black" d="M1058.06,-246.728C1133.82,-240.809 1243.42,-232.246 1321.91,-226.113"/>
<polygon fill="black" stroke="black" points="1322.59,-229.57 1332.29,-225.302 1322.05,-222.592 1322.59,-229.57"/>
<text text-anchor="middle" x="1202.72" y="-245.339" font-family="Times,serif" font-size="14.00">A</text>
</g>
<!-- 5 -->
<g id="node5" class="node"><title>5</title>
<ellipse fill="none" stroke="black" cx="320.63" cy="-73.5391" rx="82.0488" ry="73.5782"/>
<polygon fill="none" stroke="black" points="273.63,-97.5391 273.63,-118.539 336.63,-118.539 336.63,-97.5391 273.63,-97.5391"/>
<text text-anchor="start" x="276.63" y="-104.339" font-family="Times,serif" font-size="14.00">Value </text>
<polygon fill="none" stroke="black" points="338.63,-97.5391 338.63,-118.539 367.63,-118.539 367.63,-97.5391 338.63,-97.5391"/>
<text text-anchor="start" x="341.63" y="-104.339" font-family="Times,serif" font-size="14.00">The</text>
<polygon fill="none" stroke="black" points="273.63,-74.5391 273.63,-95.5391 336.63,-95.5391 336.63,-74.5391 273.63,-74.5391"/>
<text text-anchor="start" x="276.63" y="-81.3391" font-family="Times,serif" font-size="14.00">Witnesses</text>
<polygon fill="none" stroke="black" points="338.63,-74.5391 338.63,-95.5391 367.63,-95.5391 367.63,-74.5391 338.63,-74.5391"/>
<text text-anchor="start" x="341.63" y="-81.3391" font-family="Times,serif" font-size="14.00">A,B</text>
<polygon fill="none" stroke="black" points="273.63,-51.5391 273.63,-72.5391 336.63,-72.5391 336.63,-51.5391 273.63,-51.5391"/>
<text text-anchor="start" x="276.63" y="-58.3391" font-family="Times,serif" font-size="14.00">Exact</text>
<polygon fill="none" stroke="black" points="338.63,-51.5391 338.63,-72.5391 367.63,-72.5391 367.63,-51.5391 338.63,-51.5391"/>
<text text-anchor="start" x="356.63" y="-58.3391" font-family="Times,serif" font-size="14.00">1</text>
<polygon fill="none" stroke="black" points="273.63,-28.5391 273.63,-49.5391 336.63,-49.5391 336.63,-28.5391 273.63,-28.5391"/>
<text text-anchor="start" x="276.63" y="-35.3391" font-family="Times,serif" font-size="14.00">Near</text>
<polygon fill="none" stroke="black" points="338.63,-28.5391 338.63,-49.5391 367.63,-49.5391 367.63,-28.5391 338.63,-28.5391"/>
<text text-anchor="start" x="356.63" y="-35.3391" font-family="Times,serif" font-size="14.00">0</text>
<polygon fill="none" stroke="black" points="270.63,-25.5391 270.63,-121.539 370.63,-121.539 370.63,-25.5391 270.63,-25.5391"/>
</g>
<!-- 5&#45;&gt;1 -->
<g id="edge6" class="edge"><title>5&#45;&gt;1</title>
<path fill="none" stroke="black" d="M395.244,-104.344C411.959,-111.339 429.795,-118.803 446.774,-125.908"/>
<polygon fill="black" stroke="black" points="445.53,-129.181 456.106,-129.813 448.233,-122.724 445.53,-129.181"/>
<text text-anchor="middle" x="426.154" y="-123.339" font-family="Times,serif" font-size="14.00">A</text>
</g>
<!-- 5&#45;&gt;2 -->
<g id="edge7" class="edge"><title>5&#45;&gt;2</title>
<path fill="none" stroke="black" d="M402.039,-64.371C439.938,-60.796 485.808,-57.5391 527.143,-57.5391 527.143,-57.5391 527.143,-57.5391 970.897,-57.5391 1024.1,-57.5391 1080.1,-77.8472 1123.62,-98.7262"/>
<polygon fill="black" stroke="black" points="1122.19,-101.924 1132.71,-103.183 1125.27,-95.6386 1122.19,-101.924"/>
<text text-anchor="middle" x="737.07" y="-61.3391" font-family="Times,serif" font-size="14.00">B</text>
</g>
<!-- 6 -->
<g id="node6" class="node"><title>6</title>
<ellipse fill="none" stroke="black" cx="89.8026" cy="-73.5391" rx="89.6056" ry="73.5782"/>
<polygon fill="none" stroke="black" points="37.8026,-97.5391 37.8026,-118.539 100.803,-118.539 100.803,-97.5391 37.8026,-97.5391"/>
<text text-anchor="start" x="40.8026" y="-104.339" font-family="Times,serif" font-size="14.00">Value </text>
<polygon fill="none" stroke="black" points="102.803,-97.5391 102.803,-118.539 142.803,-118.539 142.803,-97.5391 102.803,-97.5391"/>
<text text-anchor="start" x="105.803" y="-104.339" font-family="Times,serif" font-size="14.00">[start]</text>
<polygon fill="none" stroke="black" points="37.8026,-74.5391 37.8026,-95.5391 100.803,-95.5391 100.803,-74.5391 37.8026,-74.5391"/>
<text text-anchor="start" x="40.8026" y="-81.3391" font-family="Times,serif" font-size="14.00">Witnesses</text>
<polygon fill="none" stroke="black" points="102.803,-74.5391 102.803,-95.5391 142.803,-95.5391 142.803,-74.5391 102.803,-74.5391"/>
<text text-anchor="start" x="105.803" y="-81.3391" font-family="Times,serif" font-size="14.00">None</text>
<polygon fill="none" stroke="black" points="37.8026,-51.5391 37.8026,-72.5391 100.803,-72.5391 100.803,-51.5391 37.8026,-51.5391"/>
<text text-anchor="start" x="40.8026" y="-58.3391" font-family="Times,serif" font-size="14.00">Exact</text>
<polygon fill="none" stroke="black" points="102.803,-51.5391 102.803,-72.5391 142.803,-72.5391 142.803,-51.5391 102.803,-51.5391"/>
<text text-anchor="start" x="131.803" y="-58.3391" font-family="Times,serif" font-size="14.00">0</text>
<polygon fill="none" stroke="black" points="37.8026,-28.5391 37.8026,-49.5391 100.803,-49.5391 100.803,-28.5391 37.8026,-28.5391"/>
<text text-anchor="start" x="40.8026" y="-35.3391" font-family="Times,serif" font-size="14.00">Near</text>
<polygon fill="none" stroke="black" points="102.803,-28.5391 102.803,-49.5391 142.803,-49.5391 142.803,-28.5391 102.803,-28.5391"/>
<text text-anchor="start" x="131.803" y="-35.3391" font-family="Times,serif" font-size="14.00">0</text>
<polygon fill="none" stroke="black" points="34.3026,-25.5391 34.3026,-121.539 145.303,-121.539 145.303,-25.5391 34.3026,-25.5391"/>
</g>
<!-- 6&#45;&gt;5 -->
<g id="edge8" class="edge"><title>6&#45;&gt;5</title>
<path fill="none" stroke="black" d="M179.928,-73.5391C195.781,-73.5391 212.316,-73.5391 228.231,-73.5391"/>
<polygon fill="black" stroke="black" points="228.586,-77.0392 238.586,-73.5391 228.586,-70.0392 228.586,-77.0392"/>
<text text-anchor="middle" x="209.105" y="-77.3391" font-family="Times,serif" font-size="14.00">A,B</text>
</g>
<!-- 7&#45;&gt;2 -->
<g id="edge9" class="edge"><title>7&#45;&gt;2</title>
<path fill="none" stroke="black" stroke-dasharray="5,2" d="M813.729,-173.384C835.312,-166.269 859.067,-159.555 881.509,-155.539 957.272,-141.983 1044.67,-139.575 1109,-140.224"/>
<polygon fill="black" stroke="black" points="1109.07,-143.725 1119.12,-140.353 1109.16,-136.725 1109.07,-143.725"/>
<text text-anchor="middle" x="969.897" y="-159.339" font-family="Times,serif" font-size="14.00">0.75</text>
</g>
<!-- 7&#45;&gt;4 -->
<g id="edge10" class="edge"><title>7&#45;&gt;4</title>
<path fill="none" stroke="black" d="M818.154,-220.233C836.256,-224.233 855.641,-228.516 874.277,-232.633"/>
<polygon fill="black" stroke="black" points="873.721,-236.095 884.241,-234.835 875.232,-229.26 873.721,-236.095"/>
<text text-anchor="middle" x="851.009" y="-233.339" font-family="Times,serif" font-size="14.00">A</text>
</g>
<!-- 8&#45;&gt;3 -->
<g id="edge11" class="edge"><title>8&#45;&gt;3</title>
<path fill="none" stroke="black" d="M1507.7,-218.539C1523.45,-218.539 1539.98,-218.539 1556.01,-218.539"/>
<polygon fill="black" stroke="black" points="1556.46,-222.039 1566.46,-218.539 1556.46,-215.039 1556.46,-222.039"/>
<text text-anchor="middle" x="1537.03" y="-222.339" font-family="Times,serif" font-size="14.00">A,B</text>
</g>
</g>
</svg>
