<?xml version="1.0" encoding="UTF-8" standalone="no"?>
<!DOCTYPE svg PUBLIC "-//W3C//DTD SVG 1.1//EN"
 "http://www.w3.org/Graphics/SVG/1.1/DTD/svg11.dtd">
<!-- Generated by graphviz version 2.38.0 (20140413.2041)
 -->
<!-- Title: %3 Pages: 1 -->
<svg width="1245pt" height="171pt"
 viewBox="0.00 0.00 1245.00 171.00" xmlns="http://www.w3.org/2000/svg" xmlns:xlink="http://www.w3.org/1999/xlink">
<g id="graph0" class="graph" transform="scale(1 1) rotate(0) translate(4 167)">
<title>%3</title>
<polygon fill="white" stroke="none" points="-4,4 -4,-167 1241,-167 1241,4 -4,4"/>
<!-- 1 -->
<g id="node1" class="node"><title>1</title>
<polygon fill="none" stroke="black" points="270,-139 150,-139 150,-87 270,-87 270,-139"/>
<polygon fill="none" stroke="black" points="159,-113 159,-134 195,-134 195,-113 159,-113"/>
<text text-anchor="start" x="162" y="-120.8" font-family="Times,serif" font-weight="bold" font-size="14.00">aaaa</text>
<polygon fill="none" stroke="black" points="195,-113 195,-134 261,-134 261,-113 195,-113"/>
<text text-anchor="start" x="198" y="-120.8" font-family="Times,serif" font-weight="bold" font-size="14.00">Sigla</text>
<polygon fill="none" stroke="black" points="159,-92 159,-113 195,-113 195,-92 159,-92"/>
<text text-anchor="start" x="162" y="-98.8" font-family="Bukyvede" font-size="14.00">aaaa </text>
<polygon fill="none" stroke="black" points="195,-92 195,-113 261,-113 261,-92 195,-92"/>
<text text-anchor="start" x="198" y="-98.8" font-family="Times,serif" font-size="14.00">B, D, A, C</text>
<polygon fill="none" stroke="black" points="158,-91 158,-135 262,-135 262,-91 158,-91"/>
</g>
<!-- 3 -->
<g id="node3" class="node"><title>3</title>
<polygon fill="none" stroke="black" points="488,-139 366,-139 366,-87 488,-87 488,-139"/>
<polygon fill="none" stroke="black" points="375,-113 375,-134 413,-134 413,-113 375,-113"/>
<text text-anchor="start" x="378" y="-120.8" font-family="Times,serif" font-weight="bold" font-size="14.00">bbbb</text>
<polygon fill="none" stroke="black" points="413,-113 413,-134 479,-134 479,-113 413,-113"/>
<text text-anchor="start" x="416" y="-120.8" font-family="Times,serif" font-weight="bold" font-size="14.00">Sigla</text>
<polygon fill="none" stroke="black" points="375,-92 375,-113 413,-113 413,-92 375,-92"/>
<text text-anchor="start" x="378" y="-98.8" font-family="Bukyvede" font-size="14.00">bbbb </text>
<polygon fill="none" stroke="black" points="413,-92 413,-113 479,-113 479,-92 413,-92"/>
<text text-anchor="start" x="416" y="-98.8" font-family="Times,serif" font-size="14.00">B, D, A, C</text>
<polygon fill="none" stroke="black" points="374,-91 374,-135 480,-135 480,-91 374,-91"/>
</g>
<!-- 1&#45;&gt;3 -->
<g id="edge1" class="edge"><title>1&#45;&gt;3</title>
<path fill="none" stroke="black" d="M270.034,-113C296.606,-113 328.175,-113 355.937,-113"/>
<polygon fill="black" stroke="black" points="355.977,-116.5 365.977,-113 355.977,-109.5 355.977,-116.5"/>
<text text-anchor="middle" x="318" y="-116.8" font-family="Times,serif" font-size="14.00">A, B, C, D</text>
</g>
<!-- 2 -->
<g id="node2" class="node"><title>2</title>
<polygon fill="none" stroke="black" points="772,-163 686,-163 686,-111 772,-111 772,-163"/>
<polygon fill="none" stroke="black" points="695,-137 695,-158 727,-158 727,-137 695,-137"/>
<text text-anchor="start" x="698" y="-144.8" font-family="Times,serif" font-weight="bold" font-size="14.00">eeex</text>
<polygon fill="none" stroke="black" points="727,-137 727,-158 763,-158 763,-137 727,-137"/>
<text text-anchor="start" x="730" y="-144.8" font-family="Times,serif" font-weight="bold" font-size="14.00">Sigla</text>
<polygon fill="none" stroke="black" points="695,-116 695,-137 727,-137 727,-116 695,-116"/>
<text text-anchor="start" x="698" y="-122.8" font-family="Bukyvede" font-size="14.00">eeex </text>
<polygon fill="none" stroke="black" points="727,-116 727,-137 763,-137 763,-116 727,-116"/>
<text text-anchor="start" x="730" y="-122.8" font-family="Times,serif" font-size="14.00">D, B</text>
<polygon fill="none" stroke="black" points="694,-115 694,-159 764,-159 764,-115 694,-115"/>
</g>
<!-- 6 -->
<g id="node6" class="node"><title>6</title>
<polygon fill="none" stroke="black" points="1087,-122 977,-122 977,-70 1087,-70 1087,-122"/>
<polygon fill="none" stroke="black" points="986,-96 986,-117 1012,-117 1012,-96 986,-96"/>
<text text-anchor="start" x="989" y="-103.8" font-family="Times,serif" font-weight="bold" font-size="14.00">ffff</text>
<polygon fill="none" stroke="black" points="1012,-96 1012,-117 1078,-117 1078,-96 1012,-96"/>
<text text-anchor="start" x="1015" y="-103.8" font-family="Times,serif" font-weight="bold" font-size="14.00">Sigla</text>
<polygon fill="none" stroke="black" points="986,-75 986,-96 1012,-96 1012,-75 986,-75"/>
<text text-anchor="start" x="989" y="-81.8" font-family="Bukyvede" font-size="14.00">ffff</text>
<polygon fill="none" stroke="black" points="1012,-75 1012,-96 1078,-96 1078,-75 1012,-75"/>
<text text-anchor="start" x="1015" y="-81.8" font-family="Times,serif" font-size="14.00">B, D, A, C</text>
<polygon fill="none" stroke="black" points="985,-74 985,-118 1079,-118 1079,-74 985,-74"/>
</g>
<!-- 2&#45;&gt;6 -->
<g id="edge2" class="edge"><title>2&#45;&gt;6</title>
<path fill="none" stroke="black" d="M772.268,-136.661C782.646,-136.514 793.726,-136.303 804,-136 852.918,-134.558 865.75,-139.186 914,-131 931.474,-128.036 950.011,-123.275 967.055,-118.208"/>
<polygon fill="black" stroke="black" points="968.357,-121.47 976.897,-115.2 966.311,-114.775 968.357,-121.47"/>
<text text-anchor="middle" x="868" y="-139.8" font-family="Times,serif" font-size="14.00">B</text>
</g>
<!-- 9 -->
<g id="node9" class="node"><title>9</title>
<polygon fill="none" stroke="black" points="914,-122 822,-122 822,-70 914,-70 914,-122"/>
<polygon fill="none" stroke="black" points="831,-96 831,-117 869,-117 869,-96 831,-96"/>
<text text-anchor="start" x="834" y="-103.8" font-family="Times,serif" font-weight="bold" font-size="14.00">dddd</text>
<polygon fill="none" stroke="black" points="869,-96 869,-117 905,-117 905,-96 869,-96"/>
<text text-anchor="start" x="872" y="-103.8" font-family="Times,serif" font-weight="bold" font-size="14.00">Sigla</text>
<polygon fill="none" stroke="black" points="831,-75 831,-96 869,-96 869,-75 831,-75"/>
<text text-anchor="start" x="834" y="-81.8" font-family="Bukyvede" font-size="14.00">dddd </text>
<polygon fill="none" stroke="black" points="869,-75 869,-96 905,-96 905,-75 869,-75"/>
<text text-anchor="start" x="872" y="-81.8" font-family="Times,serif" font-size="14.00">D</text>
<polygon fill="none" stroke="black" points="830,-74 830,-118 906,-118 906,-74 830,-74"/>
</g>
<!-- 2&#45;&gt;9 -->
<g id="edge3" class="edge"><title>2&#45;&gt;9</title>
<path fill="none" stroke="black" d="M772.222,-124.364C784.753,-120.614 798.665,-116.45 811.886,-112.494"/>
<polygon fill="black" stroke="black" points="813.25,-115.739 821.827,-109.519 811.243,-109.033 813.25,-115.739"/>
<text text-anchor="middle" x="798.5" y="-120.8" font-family="Times,serif" font-size="14.00">D</text>
</g>
<!-- 3&#45;&gt;2 -->
<g id="edge5" class="edge"><title>3&#45;&gt;2</title>
<path fill="none" stroke="black" d="M488.349,-117.828C543.209,-122.217 623.34,-128.627 675.578,-132.806"/>
<polygon fill="black" stroke="black" points="675.39,-136.302 685.637,-133.611 675.948,-129.325 675.39,-136.302"/>
<text text-anchor="middle" x="593.5" y="-132.8" font-family="Times,serif" font-size="14.00">B, D</text>
</g>
<!-- 7 -->
<g id="node7" class="node"><title>7</title>
<polygon fill="none" stroke="black" points="636,-93 551,-93 551,-41 636,-41 636,-93"/>
<polygon fill="none" stroke="black" points="560.5,-67 560.5,-88 591.5,-88 591.5,-67 560.5,-67"/>
<text text-anchor="start" x="563.5" y="-74.8" font-family="Times,serif" font-weight="bold" font-size="14.00">cccc</text>
<polygon fill="none" stroke="black" points="591.5,-67 591.5,-88 627.5,-88 627.5,-67 591.5,-67"/>
<text text-anchor="start" x="594.5" y="-74.8" font-family="Times,serif" font-weight="bold" font-size="14.00">Sigla</text>
<polygon fill="none" stroke="black" points="560.5,-46 560.5,-67 591.5,-67 591.5,-46 560.5,-46"/>
<text text-anchor="start" x="563.5" y="-52.8" font-family="Bukyvede" font-size="14.00">cccc </text>
<polygon fill="none" stroke="black" points="591.5,-46 591.5,-67 627.5,-67 627.5,-46 591.5,-46"/>
<text text-anchor="start" x="594.5" y="-52.8" font-family="Times,serif" font-size="14.00">A, C</text>
<polygon fill="none" stroke="black" points="559,-45 559,-89 628,-89 628,-45 559,-45"/>
</g>
<!-- 3&#45;&gt;7 -->
<g id="edge4" class="edge"><title>3&#45;&gt;7</title>
<path fill="none" stroke="black" d="M488.32,-96.1325C505.557,-91.3123 524.181,-86.1045 540.849,-81.4434"/>
<polygon fill="black" stroke="black" points="542.257,-84.6841 550.945,-78.6203 540.372,-77.9427 542.257,-84.6841"/>
<text text-anchor="middle" x="519.5" y="-93.8" font-family="Times,serif" font-size="14.00">A, C</text>
</g>
<!-- 4 -->
<g id="node4" class="node"><title>4</title>
<polygon fill="none" stroke="black" points="1237,-114 1183,-114 1183,-78 1237,-78 1237,-114"/>
<text text-anchor="middle" x="1210" y="-92.3" font-family="Times,serif" font-size="14.00">4</text>
</g>
<!-- 5 -->
<g id="node5" class="node"><title>5</title>
<polygon fill="none" stroke="black" points="775,-93 683,-93 683,-41 775,-41 775,-93"/>
<polygon fill="none" stroke="black" points="692,-67 692,-88 730,-88 730,-67 692,-67"/>
<text text-anchor="start" x="695" y="-74.8" font-family="Times,serif" font-weight="bold" font-size="14.00">dddd</text>
<polygon fill="none" stroke="black" points="730,-67 730,-88 766,-88 766,-67 730,-67"/>
<text text-anchor="start" x="733" y="-74.8" font-family="Times,serif" font-weight="bold" font-size="14.00">Sigla</text>
<polygon fill="none" stroke="black" points="692,-46 692,-67 730,-67 730,-46 692,-46"/>
<text text-anchor="start" x="695" y="-52.8" font-family="Bukyvede" font-size="14.00">dddd </text>
<polygon fill="none" stroke="black" points="730,-46 730,-67 766,-67 766,-46 730,-46"/>
<text text-anchor="start" x="733" y="-52.8" font-family="Times,serif" font-size="14.00">A</text>
<polygon fill="none" stroke="black" points="691,-45 691,-89 767,-89 767,-45 691,-45"/>
</g>
<!-- 8 -->
<g id="node8" class="node"><title>8</title>
<polygon fill="none" stroke="black" points="910.5,-52 825.5,-52 825.5,-0 910.5,-0 910.5,-52"/>
<polygon fill="none" stroke="black" points="835,-26 835,-47 866,-47 866,-26 835,-26"/>
<text text-anchor="start" x="838" y="-33.8" font-family="Times,serif" font-weight="bold" font-size="14.00">eeee</text>
<polygon fill="none" stroke="black" points="866,-26 866,-47 902,-47 902,-26 866,-26"/>
<text text-anchor="start" x="869" y="-33.8" font-family="Times,serif" font-weight="bold" font-size="14.00">Sigla</text>
<polygon fill="none" stroke="black" points="835,-5 835,-26 866,-26 866,-5 835,-5"/>
<text text-anchor="start" x="838" y="-11.8" font-family="Bukyvede" font-size="14.00">eeee </text>
<polygon fill="none" stroke="black" points="866,-5 866,-26 902,-26 902,-5 866,-5"/>
<text text-anchor="start" x="869" y="-11.8" font-family="Times,serif" font-size="14.00">A, C</text>
<polygon fill="none" stroke="black" points="833.5,-4 833.5,-48 902.5,-48 902.5,-4 833.5,-4"/>
</g>
<!-- 5&#45;&gt;8 -->
<g id="edge6" class="edge"><title>5&#45;&gt;8</title>
<path fill="none" stroke="black" d="M775.239,-53.4614C788.033,-49.6325 802.056,-45.4359 815.204,-41.501"/>
<polygon fill="black" stroke="black" points="816.477,-44.7736 825.053,-38.5534 814.47,-38.0674 816.477,-44.7736"/>
<text text-anchor="middle" x="798.5" y="-51.8" font-family="Times,serif" font-size="14.00">A</text>
</g>
<!-- 6&#45;&gt;4 -->
<g id="edge7" class="edge"><title>6&#45;&gt;4</title>
<path fill="none" stroke="black" d="M1087.24,-96C1114.99,-96 1148.02,-96 1172.67,-96"/>
<polygon fill="black" stroke="black" points="1172.69,-99.5001 1182.69,-96 1172.69,-92.5001 1172.69,-99.5001"/>
<text text-anchor="middle" x="1135" y="-99.8" font-family="Times,serif" font-size="14.00">A, B, C, D</text>
</g>
<!-- 7&#45;&gt;5 -->
<g id="edge8" class="edge"><title>7&#45;&gt;5</title>
<path fill="none" stroke="black" d="M636.008,-67C647.609,-67 660.403,-67 672.667,-67"/>
<polygon fill="black" stroke="black" points="672.806,-70.5001 682.806,-67 672.806,-63.5001 672.806,-70.5001"/>
<text text-anchor="middle" x="659.5" y="-70.8" font-family="Times,serif" font-size="14.00">A</text>
</g>
<!-- 7&#45;&gt;8 -->
<g id="edge9" class="edge"><title>7&#45;&gt;8</title>
<path fill="none" stroke="black" d="M630.983,-40.783C646.282,-31.3247 664.738,-21.802 683,-17 726.54,-5.55089 777.831,-9.4139 815.184,-15.2115"/>
<polygon fill="black" stroke="black" points="814.895,-18.7111 825.332,-16.8869 816.035,-11.8046 814.895,-18.7111"/>
<text text-anchor="middle" x="729" y="-20.8" font-family="Times,serif" font-size="14.00">C</text>
</g>
<!-- 8&#45;&gt;6 -->
<g id="edge10" class="edge"><title>8&#45;&gt;6</title>
<path fill="none" stroke="black" d="M910.719,-44.0267C928.041,-51.5114 948.524,-60.3624 967.632,-68.6189"/>
<polygon fill="black" stroke="black" points="966.314,-71.8621 976.882,-72.6157 969.091,-65.4363 966.314,-71.8621"/>
<text text-anchor="middle" x="945.5" y="-67.8" font-family="Times,serif" font-size="14.00">A, C</text>
</g>
<!-- 9&#45;&gt;6 -->
<g id="edge11" class="edge"><title>9&#45;&gt;6</title>
<path fill="none" stroke="black" d="M914.126,-96C930.405,-96 949.106,-96 966.706,-96"/>
<polygon fill="black" stroke="black" points="966.916,-99.5001 976.916,-96 966.916,-92.5001 966.916,-99.5001"/>
<text text-anchor="middle" x="945.5" y="-99.8" font-family="Times,serif" font-size="14.00">D</text>
</g>
<!-- 10 -->
<g id="node10" class="node"><title>10</title>
<polygon fill="none" stroke="black" points="54,-131 0,-131 0,-95 54,-95 54,-131"/>
<text text-anchor="middle" x="27" y="-109.3" font-family="Times,serif" font-size="14.00">10</text>
</g>
<!-- 10&#45;&gt;1 -->
<g id="edge12" class="edge"><title>10&#45;&gt;1</title>
<path fill="none" stroke="black" d="M54.319,-113C76.5962,-113 109.563,-113 139.345,-113"/>
<polygon fill="black" stroke="black" points="139.724,-116.5 149.724,-113 139.724,-109.5 139.724,-116.5"/>
<text text-anchor="middle" x="102" y="-116.8" font-family="Times,serif" font-size="14.00">A, B, C, D</text>
</g>
</g>
</svg>
